<?xml version="1.0" encoding="UTF-8" standalone="no"?>
<svg width="22px" height="22px" viewBox="0 0 22 22" version="1.1" xmlns="http://www.w3.org/2000/svg" xmlns:xlink="http://www.w3.org/1999/xlink" xmlns:sketch="http://www.bohemiancoding.com/sketch/ns">
    <!-- Generator: Sketch 3.5 (25232) - http://www.bohemiancoding.com/sketch -->
    <title>icon-linkedin-22px</title>
    <desc>Created with Sketch.</desc>
    <defs></defs>
    <g id="22px" stroke="none" stroke-width="1" fill="none" fill-rule="evenodd" sketch:type="MSPage">
        <g id="icon-linkedin-22px" sketch:type="MSArtboardGroup" fill="#4D4D4D">
            <path d="M6.08984375,7.58984375 L6.08984375,19.203125 L2.22265625,19.203125 L2.22265625,7.58984375 L6.08984375,7.58984375 Z M6.3359375,4.00390625 C6.34375004,4.5742216 6.14648639,5.05077934 5.74414062,5.43359375 C5.34179486,5.81640816 4.81250328,6.0078125 4.15625,6.0078125 L4.1328125,6.0078125 C3.4921843,6.0078125 2.97656445,5.81640816 2.5859375,5.43359375 C2.19531055,5.05077934 2,4.5742216 2,4.00390625 C2,3.42577836 2.20116986,2.94726752 2.60351562,2.56835938 C3.00586139,2.18945123 3.53124676,2 4.1796875,2 C4.82812824,2 5.3476543,2.18945123 5.73828125,2.56835938 C6.1289082,2.94726752 6.32812496,3.42577836 6.3359375,4.00390625 L6.3359375,4.00390625 Z M20,12.546875 L20,19.203125 L16.1445312,19.203125 L16.1445312,12.9921875 C16.1445312,12.1718709 15.9863297,11.5292992 15.6699219,11.0644531 C15.353514,10.5996071 14.8593784,10.3671875 14.1875,10.3671875 C13.69531,10.3671875 13.2832048,10.5019518 12.9511719,10.7714844 C12.619139,11.041017 12.3710946,11.374998 12.2070312,11.7734375 C12.1210933,12.0078137 12.078125,12.3242168 12.078125,12.7226562 L12.078125,19.203125 L8.22265625,19.203125 C8.23828133,16.0859219 8.24609375,13.5586034 8.24609375,11.6210938 C8.24609375,9.68358406 8.24218754,8.52734562 8.234375,8.15234375 L8.22265625,7.58984375 L12.078125,7.58984375 L12.078125,9.27734375 L12.0546875,9.27734375 C12.2109383,9.0273425 12.3710929,8.80859469 12.5351562,8.62109375 C12.6992196,8.43359281 12.9199205,8.23046984 13.1972656,8.01171875 C13.4746108,7.79296766 13.8144511,7.62304748 14.2167969,7.50195312 C14.6191426,7.38085877 15.0664038,7.3203125 15.5585938,7.3203125 C16.8945379,7.3203125 17.9687459,7.76366744 18.78125,8.65039062 C19.5937541,9.53711381 20,10.8359289 20,12.546875 L20,12.546875 Z" id="" sketch:type="MSShapeGroup"></path>
        </g>
    </g>
</svg>