<svg width="22" height="22" xmlns="http://www.w3.org/2000/svg"><g fill="#3D4752" fill-rule="evenodd"><path d="M18.7 3.3c-1.7-1.7-4.5-1.7-6.2 0L11 5h1.4l1.4.6.5-.5c.7-.6 2-.6 2.5 0 .7.8.7 2 0 2.6l-4.6 4.6c-.7.7-2 .7-2.5 0 0 0-.3-.3-.3-.5l-2 2c.2 0 .3.2.5.4 1.6 1.8 4.4 1.8 6 0l4.7-4.5c1.7-1.7 1.7-4.5 0-6.2z"/><path d="M9.3 17L8 16.7l-.3.4c-.7.7-2 .7-2.5 0-.7-.7-.7-2 0-2.5L9.8 10c.7-.8 2-.8 2.5 0 0 0 .3.2.3.4l2-2c-.2 0-.3-.2-.5-.4-1.6-1.7-4.4-1.7-6 0l-4.7 4.6c-1.7 1.7-1.7 4.5 0 6.2 1.7 1.7 4.5 1.7 6.2 0l1.4-1.4s-1 0-1.7-.3z"/></g></svg>