<?xml version="1.0" encoding="UTF-8" standalone="no"?>
<svg width="22px" height="22px" viewBox="0 0 22 22" version="1.1" xmlns="http://www.w3.org/2000/svg" xmlns:xlink="http://www.w3.org/1999/xlink" xmlns:sketch="http://www.bohemiancoding.com/sketch/ns">
    <!-- Generator: Sketch 3.5 (25232) - http://www.bohemiancoding.com/sketch -->
    <title>icon-twitter-22px</title>
    <desc>Created with Sketch.</desc>
    <defs></defs>
    <g id="22px" stroke="none" stroke-width="1" fill="none" fill-rule="evenodd" sketch:type="MSPage">
        <g id="icon-twitter-22px" sketch:type="MSArtboardGroup" fill="#3D4752">
            <path d="M20.46875,5.78125 C19.9453099,6.54687883 19.3125037,7.19921605 18.5703125,7.73828125 C18.578125,7.8476568 18.5820312,8.01171766 18.5820312,8.23046875 C18.5820312,9.24609883 18.4335952,10.2597606 18.1367188,11.2714844 C17.8398423,12.2832082 17.3886749,13.2539016 16.7832031,14.1835938 C16.1777313,15.1132859 15.4570354,15.9355433 14.6210938,16.6503906 C13.7851521,17.3652379 12.7773496,17.9355447 11.5976562,18.3613281 C10.4179629,18.7871115 9.15625672,19 7.8125,19 C5.69530191,19 3.75782129,18.4335994 2,17.3007812 C2.27343887,17.3320314 2.57812332,17.3476562 2.9140625,17.3476562 C4.67188379,17.3476562 6.23827437,16.8085991 7.61328125,15.7304688 C6.79296465,15.7148437 6.05859699,15.4628931 5.41015625,14.9746094 C4.76171551,14.4863257 4.31640746,13.863285 4.07421875,13.1054688 C4.33203254,13.1445314 4.57031141,13.1640625 4.7890625,13.1640625 C5.12500168,13.1640625 5.45702961,13.1210942 5.78515625,13.0351562 C4.91015188,12.8554679 4.18554975,12.4199253 3.61132812,11.7285156 C3.0371065,11.0371059 2.75,10.2343796 2.75,9.3203125 L2.75,9.2734375 C3.28125266,9.57031398 3.85155945,9.73046863 4.4609375,9.75390625 C3.94530992,9.41015453 3.53515777,8.96094027 3.23046875,8.40625 C2.92577973,7.85155973 2.7734375,7.25000324 2.7734375,6.6015625 C2.7734375,5.91405906 2.94531078,5.27734668 3.2890625,4.69140625 C4.23437973,5.85547457 5.38475885,6.78710588 6.74023438,7.48632812 C8.0957099,8.18555037 9.54686727,8.57421836 11.09375,8.65234375 C11.0312497,8.35546727 11,8.06640766 11,7.78515625 C11,6.73827602 11.3691369,5.84570682 12.1074219,5.10742188 C12.8457068,4.36913693 13.738276,4 14.7851562,4 C15.8789117,4 16.8007775,4.39843352 17.5507812,5.1953125 C18.402348,5.03124918 19.2031212,4.72656473 19.953125,4.28125 C19.6640611,5.17969199 19.1093791,5.87499754 18.2890625,6.3671875 C19.0156286,6.28906211 19.7421839,6.09375156 20.46875,5.78125 L20.46875,5.78125 Z" id="" sketch:type="MSShapeGroup"></path>
        </g>
    </g>
</svg>