<svg width="22" height="22" xmlns="http://www.w3.org/2000/svg" xmlns:xlink="http://www.w3.org/1999/xlink"><defs><path d="M14 3h3c.55 0 1 .45 1 1v15c0 .55-.45 1-1 1H5c-.55 0-1-.45-1-1V4c0-.55.45-1 1-1h3v-.5c0-.28.2-.5.5-.5h1c.27 0 .5.22.5.5V3h2v-.5c0-.28.2-.5.5-.5h1c.27 0 .5.22.5.5V3zm0 2h2v13H6V5h2v.5c0 .28.23.5.5.5h1c.3 0 .5-.22.5-.5V5h2v.5c0 .28.23.5.5.5h1c.3 0 .5-.22.5-.5V5zM7 9h8v1H7V9zm0 3h8v1H7v-1zm0 3h8v1H7v-1z" id="a"/></defs><use fill="#3D4752" xlink:href="#a" fill-rule="evenodd"/></svg>
