<svg width="22" height="22" xmlns="http://www.w3.org/2000/svg"><g fill="#3D4752" fill-rule="evenodd"><path d="M15.6 14.3l-1-1.7-1-1.2V11l.4-.4c1.3-1.4 2.7-2.8 3.7-4.3 1-1.6 1.7-3.2 2-4.8 0-.2-.2-.3-.3-.4H19l-3 1c-.3 0-.4 0-.5.3-.7 2-2.4 3.7-4.2 5.7l-.3.2c-.2 0-.3 0-.3-.2C9 6 7 4.3 6.5 2.4c0-.2-.2-.3-.4-.4L3 1c-.2 0-.3 0-.4.2l-.2.4c.2 1.6.8 3.2 2 4.8 1 1.5 2.3 3 3.6 4.3 2.4 2.5 4.7 5 5 7.7 0 .3 0 .5.4.5h2.8l.3-.3v-.4-1.6-.3c2.4 0 4 1 4 1.7s-1.3 1.6-3.5 2.2c-.2 0-.3.2-.3.4 0 .3.2.5.5.5 3-.6 5-1.7 5-3-.2-1.7-2.8-3-6.6-3.7zM8 12.8h-.7l-.8 1.5c-3.8.6-6.4 2-6.4 3.4 0 1.3 2 2.4 5 3 .3 0 .5 0 .5-.3 0-.2 0-.4-.3-.4-2-.6-3.5-1.5-3.5-2 0-.7 1.5-1.3 3.8-1.6 0 0 .2 0 .2.2l-.2 1.6v.4l.4.2h2.7c.2 0 .4-.2.5-.5 0-1 .3-1.7.8-2.6.2-.3 0-.6 0-.7l-2-2.2z"/><path d="M10.7 5.3h.3s.2.2.3 0c1-1 1.5-2 1.7-2.4v-.2c0-.3-.2-.7-.4-.7H9.4c-.2 0-.4.4-.4.7 0 .5.7 1.6 1.7 2.6z"/></g></svg>