<?xml version="1.0" encoding="UTF-8" standalone="no"?>
<svg width="22px" height="22px" viewBox="0 0 22 22" version="1.1" xmlns="http://www.w3.org/2000/svg" xmlns:xlink="http://www.w3.org/1999/xlink" xmlns:sketch="http://www.bohemiancoding.com/sketch/ns">
    <!-- Generator: Sketch 3.4.4 (17249) - http://www.bohemiancoding.com/sketch -->
    <title>icon-fill-gradient-linear-22px</title>
    <desc>Created with Sketch.</desc>
    <defs>
        <linearGradient x1="50%" y1="0%" x2="50%" y2="100%" id="linearGradient-1">
            <stop stop-color="#FFFFFF" offset="0%"></stop>
            <stop stop-color="#FFFFFF" stop-opacity="0" offset="100%"></stop>
        </linearGradient>
    </defs>
    <g id="22px" stroke="none" stroke-width="1" fill="none" fill-rule="evenodd" sketch:type="MSPage">
        <g id="icon-fill-gradient-linear-22px" sketch:type="MSArtboardGroup">
            <path d="M18,20 L4,20 C2.895,20 2,19.105 2,18 L2,4 C2,2.895 2.895,2 4,2 L18,2 C19.105,2 20,2.895 20,4 L20,18 C20,19.105 19.105,20 18,20" id="primary" fill="#3D4752" sketch:type="MSShapeGroup"></path>
            <path d="M18,20 L4,20 C2.895,20 2,19.105 2,18 L2,4 C2,2.895 2.895,2 4,2 L18,2 C19.105,2 20,2.895 20,4 L20,18 C20,19.105 19.105,20 18,20" id="overlay" fill="url(#linearGradient-1)" sketch:type="MSShapeGroup"></path>
        </g>
    </g>
</svg>