<svg width="22" height="22" xmlns="http://www.w3.org/2000/svg"><g fill="#F78C1F" fill-rule="evenodd"><path d="M11 15.4c-1.2 0-2.3-.5-3-1.3-1-.7-1.3-1.8-1.3-2.8 0-.6-.2-1.2-.7-1.6-1-1-2.3-1-3.2 0-1 1-1 2.3 0 3.2.4.4 1 .7 1.6.7 1 0 2 .3 3 1 .7 1 1 2 1.2 3 0 .7.2 1.3.7 1.8 1 1 2.3 1 3.2 0 1-1 1-2.4 0-3.3-.5-.4-1-.6-1.6-.6"/><path d="M11 7c-1.2 0-2.3.5-3 1.3-1 .8-1.3 2-1.3 3 0 .5-.2 1-.7 1.5-1 1-2.3 1-3.2 0-1-1-1-2.3 0-3.2.4-.5 1-.7 1.6-.7 1 0 2-.4 3-1.2.7-1 1-2 1.2-3 0-.6.2-1.2.7-1.7 1-.8 2.3-.8 3.2 0 1 1 1 2.5 0 3.3-.5.5-1 .7-1.6.7M19 16c-1-1-2.4-1-3.3 0-1 1-1 2.4 0 3.3 1 1 2.4 1 3.3 0 .8-1 .8-2.4 0-3.3M19 6.3c-1 1-2.4 1-3.3 0-1-.8-1-2.3 0-3.2 1-.8 2.4-.8 3.3 0 .8 1 .8 2.5 0 3.3"/></g></svg>