<?xml version="1.0" encoding="UTF-8" standalone="no"?>
<svg width="22px" height="22px" viewBox="0 0 22 22" version="1.1" xmlns="http://www.w3.org/2000/svg" xmlns:xlink="http://www.w3.org/1999/xlink" xmlns:sketch="http://www.bohemiancoding.com/sketch/ns">
    <!-- Generator: Sketch 3.5 (25232) - http://www.bohemiancoding.com/sketch -->
    <title>icon-google-22px</title>
    <desc>Created with Sketch.</desc>
    <defs></defs>
    <g id="22px" stroke="none" stroke-width="1" fill="none" fill-rule="evenodd" sketch:type="MSPage">
        <g id="icon-google-22px" sketch:type="MSArtboardGroup">
            <g id="google-icon" sketch:type="MSLayerGroup" transform="translate(2.000000, 1.000000)">
                <path d="M6.17431202,1.39993293 C8.15071892,0.71443271 10.3680311,0.729227679 12.3346052,1.45418115 C13.4260538,1.85857696 14.4240901,2.48982896 15.2795498,3.28382562 C14.9943966,3.59451996 14.6846612,3.88548768 14.3896751,4.18631871 C13.8292015,4.74852752 13.2687279,5.31073634 12.7082543,5.87294515 C12.1526971,5.34032627 11.474229,4.93593046 10.7367638,4.70907427 C9.87147121,4.44769649 8.93734854,4.40824324 8.05239022,4.60057784 C7.01993885,4.82250237 6.06123401,5.36498455 5.31885231,6.12445962 C4.71904723,6.73105334 4.2667352,7.48066509 3.99141484,8.28945671 C2.99337852,7.51025502 1.99534219,6.73598499 0.992389435,5.9567833 C2.04942298,3.83617112 3.94716692,2.16433965 6.17431202,1.39993293 L6.17431202,1.39993293 Z" id="Shape" fill="#EA4335" sketch:type="MSShapeGroup"></path>
                <path d="M0.200843385,8.25493512 C0.363085743,7.4560068 0.628573238,6.67680512 0.99730587,5.94691999 C1.99534219,6.72612168 2.99337852,7.50039171 3.99633127,8.2795934 C3.60301647,9.4286693 3.60301647,10.7059683 3.99633127,11.8501125 C2.99829495,12.6293142 2.00025863,13.4085159 1.0022223,14.1827859 C0.0779325082,12.3728681 -0.202304292,10.2473242 0.200843385,8.25493512 L0.200843385,8.25493512 Z" id="Shape" fill="#FBBC05" sketch:type="MSShapeGroup"></path>
                <path d="M9.16350455,8.34863659 L17.767266,8.34863659 C18.0524192,9.96128818 17.9885055,11.642983 17.5361935,13.221113 C17.1182965,14.6660882 16.3267505,16.0074987 15.2205526,17.0283516 C14.2520149,16.2738082 13.2834772,15.5192648 12.3149394,14.7647214 C13.2736443,14.1186744 13.9521123,13.0731633 14.1438533,11.929019 L9.15858812,11.929019 C9.16350455,10.7355582 9.16350455,9.5420974 9.16350455,8.34863659 L9.16350455,8.34863659 Z" id="Shape" fill="#4285F4" sketch:type="MSShapeGroup"></path>
                <path d="M0.992389435,14.1877176 C1.99042576,13.4134476 2.98846208,12.6342459 3.9864984,11.8550442 C4.36998034,12.9843935 5.1074456,13.9855197 6.08089975,14.6710199 C6.6905377,15.100074 7.38867149,15.4058367 8.11630388,15.5537864 C8.8341034,15.7017361 9.5764851,15.6820094 10.2992011,15.558718 C11.0170006,15.430495 11.7102179,15.1691172 12.3149394,14.7597897 C13.2834772,15.5143331 14.2520149,16.2688765 15.2205526,17.0234199 C14.1733519,17.9949562 12.8606637,18.6557981 11.474229,18.9763558 C9.9403013,19.3265034 8.31787772,19.3363667 6.79378284,18.9270392 C5.58433981,18.6064816 4.4486433,18.0294778 3.47027272,17.2453445 C2.44273779,16.4266895 1.58727808,15.3713151 0.992389435,14.1877176 L0.992389435,14.1877176 Z" id="Shape" fill="#34A853" sketch:type="MSShapeGroup"></path>
            </g>
        </g>
    </g>
</svg>