<svg width="22" height="22" xmlns="http://www.w3.org/2000/svg"><g fill="#3D4752" fill-rule="evenodd"><path d="M11 7c1.7 0 3-1.3 3-3s-1.3-3-3-3-3 1.3-3 3 1.3 3 3 3M21 10h-6c0-1-1-2-2-2H9c-1 0-2 1-2 2H1c-.6 0-1 .4-1 1v3l1 2v4c0 .6.4 1 1 1h3c.6 0 1-.4 1-1v-4l1-2v-2l1 2v6c0 .6.4 1 1 1h4c.6 0 1-.4 1-1v-6l1-2v2l1 2v4c0 .6.4 1 1 1h3c.6 0 1-.4 1-1v-4l1-2v-3c0-.6-.4-1-1-1M18.5 9C20 9 21 8 21 6.5 21 5 20 4 18.5 4 17 4 16 5 16 6.5 16 8 17 9 18.5 9M3.5 9C5 9 6 8 6 6.5 6 5 5 4 3.5 4 2 4 1 5 1 6.5 1 8 2 9 3.5 9"/></g></svg>