<svg width="22" height="22" xmlns="http://www.w3.org/2000/svg"><g fill="#000" fill-rule="evenodd"><path d="M11 9.5c-.4 0-.8 0-1 .2.3.2.6.6.6 1.2 0 .5-.5 1-1 1-.6 0-1-.3-1.2-.8-.2.4-.2.7-.2 1 0 1.7 1.2 3 2.7 3 1.5 0 2.7-1.3 2.7-3 0-1.4-1.2-2.7-2.8-2.7z"/><path d="M14.7 6.2c-1.8-1-4-1.4-6-.7 1-.7 2-1 3.4-1 .8 0 1.5 0 2.2.2.3 0 .4 0 .4-.2v-.3c-2-1.5-3.7-2.2-3.7-2.2-4 1.6-7 5.6-7.2 10 0 1.4.3 2.7 1 4 .4.7 1 1.3 1.5 1.8-1-.5-2-1.4-2.7-2.5-.4-.7-.7-1.3-.8-2 0-.3-.2-.3-.4-.2v.3c-.6 2.3-.3 4.2-.3 4.2 3.6 2.8 8.5 3.4 12.5 1 1.8-1 3-2.8 3.4-4.8 0 1.2-.2 2.5-1 3.7-.2.6-.7 1-1.2 1.6-.2.2 0 .4 0 .4h.3c2.3-.6 3.8-2 3.8-2 .6-4.3-1.3-8.8-5-11.2zM11 17c-3.3 0-6-2.3-6-5 0-.4 0-.7.2-1C6.4 9.7 8.5 9 11 9c2.4 0 4.5.7 5.7 2v1c0 2.7-2.5 5-5.8 5z"/></g></svg>