<?xml version="1.0" encoding="UTF-8" standalone="no"?>
<svg width="22px" height="22px" viewBox="0 0 22 22" version="1.1" xmlns="http://www.w3.org/2000/svg" xmlns:xlink="http://www.w3.org/1999/xlink" xmlns:sketch="http://www.bohemiancoding.com/sketch/ns">
    <!-- Generator: Sketch 3.4.4 (17249) - http://www.bohemiancoding.com/sketch -->
    <title>icon-google-22px</title>
    <desc>Created with Sketch.</desc>
    <defs></defs>
    <g id="22px" stroke="none" stroke-width="1" fill="none" fill-rule="evenodd" sketch:type="MSPage">
        <g id="icon-google-22px" sketch:type="MSArtboardGroup">
            <g id="google" sketch:type="MSLayerGroup" transform="translate(2.000000, 1.950000)">
                <path d="M6.25750769,1.30605089 C4.25926361,1.99189358 2.55656557,3.49189793 1.60817159,5.39013351 C1.27733648,6.04500267 1.0391352,6.73969495 0.893567749,7.46093597 C0.531854694,9.24855177 0.783289378,11.1556369 1.60376045,12.7839602 C2.13750777,13.8459102 2.90504522,14.7928156 3.83138354,15.5317558 C4.70919936,16.2308729 5.72817151,16.7529983 6.81331067,17.0406097 C8.18076246,17.4078674 9.63643695,17.3990179 11.012711,17.0848577 C12.256651,16.7972462 13.434424,16.1998993 14.3739957,15.3326402 C15.3665011,14.4167083 16.0766938,13.213165 16.4516402,11.9167011 C16.8618758,10.5051926 16.9148094,8.99633865 16.6589636,7.54500701 L8.93947765,7.54500701 L8.93947765,10.7574057 L13.4123684,10.7574057 C13.2403341,11.7839573 12.6315975,12.7220132 11.7714262,13.3016609 C11.2288566,13.6689186 10.6068866,13.9034325 9.96286093,14.0184771 C9.31883525,14.1290969 8.64834276,14.1423713 8.00431707,14.0140523 C7.34705798,13.8813086 6.72508798,13.6069715 6.17810726,13.2220146 C5.30470256,12.6069686 4.63862121,11.7087359 4.29896383,10.6954586 C3.95048418,9.66448218 3.94607304,8.51846116 4.29896383,7.49190951 C4.54598738,6.7662437 4.95181178,6.09810017 5.48997023,5.54942601 C6.15164045,4.86800811 7.01181174,4.38128103 7.94256118,4.18216541 C8.73656545,4.01402333 9.57468107,4.04499687 10.3510408,4.27951083 C11.012711,4.47862645 11.6214476,4.84588415 12.1199059,5.32376164 C12.6227752,4.8193354 13.1256446,4.31490916 13.628514,3.81048292 C13.8931821,3.54057063 14.1710835,3.27950793 14.4269294,3.00074606 C13.663803,2.29277941 12.7639315,1.72198129 11.7846596,1.35914838 C10.0202057,0.704279231 8.03519502,0.691004856 6.25750769,1.30605089 L6.25750769,1.30605089 Z" id="Shape" fill="#FFFFFF" sketch:type="MSShapeGroup"></path>
                <path d="M6.25750769,1.30605089 C8.03078388,0.691004856 10.0202057,0.704279231 11.7846596,1.35472359 C12.7639315,1.7175565 13.6593919,2.28392982 14.4269294,2.99632127 C14.1710835,3.27508314 13.8931821,3.53614584 13.628514,3.80605813 C13.1256446,4.31048437 12.6227752,4.81491061 12.1199059,5.31933685 C11.6214476,4.84145936 11.012711,4.47862645 10.3510408,4.27508604 C9.57468107,4.04057208 8.73656545,4.00517375 7.94256118,4.17774062 C7.01622287,4.37685624 6.15605158,4.86358332 5.48997023,5.54500122 C4.95181178,6.08925058 4.54598738,6.7618189 4.29896383,7.48748472 C3.40350346,6.78836765 2.50804309,6.09367538 1.60817159,5.39455831 C2.55656557,3.49189793 4.25926361,1.99189358 6.25750769,1.30605089 L6.25750769,1.30605089 Z" id="Shape" fill="#EA4335" sketch:type="MSShapeGroup"></path>
                <path d="M0.897978884,7.45651118 C1.04354633,6.73969495 1.28174761,6.04057788 1.61258272,5.38570872 C2.50804309,6.08482579 3.40350346,6.77951807 4.30337496,7.47863514 C3.95048418,8.50961158 3.95048418,9.6556326 4.30337496,10.6821842 C3.40791459,11.3813013 2.51245423,12.0804184 1.61699386,12.7751107 C0.787700513,11.1512122 0.536265829,9.24412698 0.897978884,7.45651118 L0.897978884,7.45651118 Z" id="Shape" fill="#FBBC05" sketch:type="MSShapeGroup"></path>
                <path d="M8.93947765,7.54058222 L16.6589636,7.54058222 C16.9148094,8.98748907 16.8574646,10.496343 16.4516402,11.9122763 C16.0766938,13.2087402 15.3665011,14.4122835 14.3739957,15.3282154 C13.5050022,14.6512223 12.6360086,13.9742292 11.7670151,13.2972361 C12.6271864,12.7175884 13.235923,11.7795326 13.4079572,10.7529809 L8.93506652,10.7529809 C8.93947765,9.68218135 8.93947765,8.61138178 8.93947765,7.54058222 L8.93947765,7.54058222 Z" id="Shape" fill="#4285F4" sketch:type="MSShapeGroup"></path>
                <path d="M1.60817159,12.7795355 C2.50363196,12.0848432 3.39909232,11.3857261 4.29455269,10.686609 C4.63862121,11.6998863 5.30029143,12.598119 6.17369612,13.213165 C6.72067684,13.5981219 7.34705798,13.872459 7.99990594,14.0052027 C8.64393162,14.1379465 9.31001298,14.1202473 9.9584498,14.0096275 C10.6024755,13.8945829 11.2244455,13.660069 11.7670151,13.2928113 C12.6360086,13.9698044 13.5050022,14.6467975 14.3739957,15.3237906 C13.434424,16.1954746 12.256651,16.7883966 11.012711,17.0760081 C9.63643695,17.3901683 8.18076246,17.3990179 6.81331067,17.0317602 C5.72817151,16.7441487 4.70919936,16.2264481 3.83138354,15.5229062 C2.90945636,14.7883908 2.1419189,13.8414854 1.60817159,12.7795355 L1.60817159,12.7795355 Z" id="Shape" fill="#34A853" sketch:type="MSShapeGroup"></path>
            </g>
        </g>
    </g>
</svg>