<?xml version="1.0" encoding="UTF-8" standalone="no"?>
<svg width="22px" height="22px" viewBox="0 0 22 22" version="1.1" xmlns="http://www.w3.org/2000/svg" xmlns:xlink="http://www.w3.org/1999/xlink" xmlns:sketch="http://www.bohemiancoding.com/sketch/ns">
    <!-- Generator: Sketch 3.4.4 (17249) - http://www.bohemiancoding.com/sketch -->
    <title>icon-x-22px</title>
    <desc>Created with Sketch.</desc>
    <defs></defs>
    <g id="22px" stroke="none" stroke-width="1" fill="none" fill-rule="evenodd" sketch:type="MSPage">
        <g id="icon-x-22px" sketch:type="MSArtboardGroup" fill="#3D4752">
            <g id="X" sketch:type="MSLayerGroup" transform="translate(3.000000, 3.000000)">
                <path d="M1.413,14.587 L1.413,14.587 C0.862,14.036 0.862,13.142 1.413,12.591 L12.591,1.413 C13.142,0.862 14.036,0.862 14.587,1.413 C15.138,1.965 15.138,2.858 14.587,3.409 L3.409,14.587 C2.858,15.138 1.964,15.138 1.413,14.587" id="Fill-9" sketch:type="MSShapeGroup"></path>
                <path d="M12.591,14.587 L1.413,3.409 C0.862,2.858 0.862,1.965 1.413,1.413 C1.964,0.862 2.858,0.862 3.409,1.413 L14.587,12.591 C15.138,13.142 15.138,14.036 14.587,14.587 C14.036,15.138 13.142,15.138 12.591,14.587" id="Fill-10" sketch:type="MSShapeGroup"></path>
            </g>
        </g>
    </g>
</svg>