<?xml version="1.0" encoding="UTF-8" standalone="no"?>
<svg width="22px" height="22px" viewBox="0 0 22 22" version="1.1" xmlns="http://www.w3.org/2000/svg" xmlns:xlink="http://www.w3.org/1999/xlink" xmlns:sketch="http://www.bohemiancoding.com/sketch/ns">
    <!-- Generator: Sketch 3.4.4 (17249) - http://www.bohemiancoding.com/sketch -->
    <title>icon-gear-22px</title>
    <desc>Created with Sketch.</desc>
    <defs>
        <path id="path-1" d="M0,0.799 L18,0.799 L18,18 L0,18"></path>
    </defs>
    <g id="22px" stroke="none" stroke-width="1" fill="none" fill-rule="evenodd" sketch:type="MSPage">
        <g id="icon-gear-22px" sketch:type="MSArtboardGroup">
            <g id="Page-1" sketch:type="MSLayerGroup" transform="translate(2.000000, 2.000000)">
                <mask id="mask-2" sketch:name="Clip 2" fill="white">
                    <use xlink:href="#path-1"></use>
                </mask>
                <g id="Clip-2"></g>
                <path d="M9,11.8994 C7.619,11.8994 6.5,10.7804 6.5,9.3994 C6.5,8.0184 7.619,6.8994 9,6.8994 C10.381,6.8994 11.5,8.0184 11.5,9.3994 C11.5,10.7804 10.381,11.8994 9,11.8994 M18,10.8994 L18,7.8994 C18,7.6234 17.776,7.3994 17.5,7.3994 L14.651,7.3994 C14.403,6.6984 14.032,6.0574 13.558,5.5044 L15.115,2.8084 C14.137,1.9014 12.963,1.2024 11.656,0.7984 L10.094,3.5034 C9.739,3.4384 9.374,3.3994 9,3.3994 C8.626,3.3994 8.261,3.4384 7.906,3.5034 L6.344,0.7984 C5.037,1.2024 3.863,1.9014 2.885,2.8084 L4.442,5.5044 C3.968,6.0574 3.597,6.6984 3.349,7.3994 L0.5,7.3994 C0.224,7.3994 0,7.6234 0,7.8994 L0,10.8994 C0,11.1754 0.224,11.3994 0.5,11.3994 L3.349,11.3994 C3.597,12.1004 3.968,12.7414 4.442,13.2944 L2.885,15.9904 C3.863,16.8974 5.037,17.5964 6.344,18.0004 L7.906,15.2954 C8.261,15.3604 8.626,15.3994 9,15.3994 C9.374,15.3994 9.739,15.3604 10.094,15.2954 L11.656,18.0004 C12.963,17.5964 14.137,16.8974 15.115,15.9904 L13.558,13.2944 C14.032,12.7414 14.403,12.1004 14.651,11.3994 L17.5,11.3994 C17.776,11.3994 18,11.1754 18,10.8994" id="Fill-1" fill="#3D4752" sketch:type="MSShapeGroup" mask="url(#mask-2)"></path>
            </g>
        </g>
    </g>
</svg>