<?xml version="1.0" encoding="UTF-8" standalone="no"?>
<svg width="22px" height="22px" viewBox="0 0 22 22" version="1.1" xmlns="http://www.w3.org/2000/svg" xmlns:xlink="http://www.w3.org/1999/xlink" xmlns:sketch="http://www.bohemiancoding.com/sketch/ns">
    <!-- Generator: Sketch 3.4.4 (17249) - http://www.bohemiancoding.com/sketch -->
    <title>icon-iconfinder-22px</title>
    <desc>Created with Sketch.</desc>
    <defs></defs>
    <g id="22px" stroke="none" stroke-width="1" fill="none" fill-rule="evenodd" sketch:type="MSPage">
        <g id="icon-iconfinder-22px" sketch:type="MSArtboardGroup" fill="#000000">
            <g id="iconfinder" sketch:type="MSLayerGroup" transform="translate(2.000000, 2.000000)">
                <path d="M8.93765217,7.51870588 C8.55313043,7.51870588 8.18686957,7.59838235 7.854,7.74158824 C8.30530435,7.90173529 8.62878261,8.33744118 8.62878261,8.85017647 C8.62878261,9.50002941 8.11095652,10.0252059 7.47104348,10.0252059 C6.96573913,10.0252059 6.53634783,9.6975 6.37852174,9.23876471 C6.23686957,9.57705882 6.15886957,9.94870588 6.15886957,10.3386176 C6.15886957,11.8964118 7.40321739,13.1582647 8.9373913,13.1582647 C10.472087,13.1582647 11.7161739,11.8961471 11.7161739,10.3386176 C11.7164348,8.78188235 10.4723478,7.51870588 8.93765217,7.51870588 L8.93765217,7.51870588 Z" id="Shape" sketch:type="MSShapeGroup"></path>
                <path d="M12.6915652,4.22073529 C10.9056522,3.09467647 8.67391304,2.80614706 6.62426087,3.52561765 L6.62556522,3.52429412 C7.60408696,2.80111765 8.80956522,2.37388235 10.1136522,2.37388235 C10.8425217,2.37388235 11.5351304,2.48902941 12.1789565,2.73414706 C12.2206957,2.74923529 12.2757391,2.75929412 12.3007826,2.75929412 C12.4544348,2.75929412 12.5673913,2.65208824 12.5681739,2.50041176 C12.5686957,2.39691176 12.5183478,2.31114706 12.4531304,2.25 C10.7483478,0.657529412 8.9373913,0 8.9373913,0 C4.896,1.63958824 1.92391304,5.60620588 1.8386087,10.1385 C1.80208696,11.4278824 2.10547826,12.7426765 2.78791304,13.941 C3.19278261,14.6527941 3.6993913,15.2677059 4.27747826,15.7777941 C3.17086957,15.2788235 2.20434783,14.4330882 1.55217391,13.2874412 C1.18773913,12.6468529 0.939130435,11.9803235 0.826695652,11.2928824 C0.819130435,11.2484118 0.799826087,11.1952059 0.787304348,11.1729706 C0.710608696,11.0374412 0.562695652,10.9919118 0.432782609,11.0676176 C0.344086957,11.1187059 0.296347826,11.2060588 0.277304348,11.2936765 C-0.230347826,13.5886765 0.11426087,15.5088529 0.11426087,15.5088529 C3.58434783,18.2803235 8.54895652,18.8867647 12.4883478,16.5787941 C14.3415652,15.4924412 15.530087,13.6882059 15.9086087,11.7111176 L15.9096522,11.7137647 C16.0372174,12.9364412 15.7987826,14.2083529 15.1468696,15.3545294 C14.7826957,15.9945882 14.3384348,16.5467647 13.8073043,16.9898824 C13.7728696,17.0182059 13.7368696,17.0621471 13.7246087,17.0838529 C13.647913,17.2183235 13.6826087,17.3723824 13.812,17.4483529 C13.9001739,17.5005 13.9982609,17.4983824 14.0825217,17.4721765 C16.2946957,16.7707059 17.7618261,15.5075294 17.7618261,15.5075294 C18.3813913,11.1494118 16.4945217,6.56788235 12.6915652,4.22073529 L12.6915652,4.22073529 Z M8.93765217,15.0376765 C5.69765217,15.0376765 3.07147826,12.7334118 3.07147826,9.88941176 C3.07147826,9.58685294 3.10304348,9.28985294 3.16017391,9.00105882 C4.37765217,7.73444118 6.50921739,6.89241176 8.93765217,6.89241176 C11.3658261,6.89241176 13.4973913,7.73444118 14.7148696,9.00105882 C14.7725217,9.28985294 14.804087,9.58685294 14.804087,9.88941176 C14.804087,12.7334118 12.1776522,15.0376765 8.93765217,15.0376765 L8.93765217,15.0376765 Z" id="Shape" sketch:type="MSShapeGroup"></path>
            </g>
        </g>
    </g>
</svg>