<?xml version="1.0" encoding="UTF-8" standalone="no"?>
<svg width="14px" height="18px" viewBox="0 0 14 18" version="1.1" xmlns="http://www.w3.org/2000/svg" xmlns:xlink="http://www.w3.org/1999/xlink" xmlns:sketch="http://www.bohemiancoding.com/sketch/ns">
    <!-- Generator: Sketch 3.3.3 (12081) - http://www.bohemiancoding.com/sketch -->
    <title>Imported Layers Copy</title>
    <desc>Created with Sketch.</desc>
    <defs></defs>
    <g id="Page-1" stroke="none" stroke-width="1" fill="none" fill-rule="evenodd" sketch:type="MSPage">
        <g id="B00-Copy-6" sketch:type="MSArtboardGroup" transform="translate(-20.000000, -286.000000)" fill="#95A8BA">
            <g id="COMPONENTS-+-Imported-Layers-Copy" sketch:type="MSLayerGroup" transform="translate(20.000000, 286.000000)">
                <path d="M4.4798109,17.0526456 L1.8838109,13.6316983 C1.8838109,13.6316983 0.206810899,11.3873825 0.152810899,10.2694877 C0.0988108995,9.151593 -0.0511891005,8.68832984 0.0178108995,8.07254037 C0.152810899,6.85990879 1.6948109,6.793593 1.9108109,7.74854037 C2.3158109,9.26148774 3.3258109,10.285593 3.3258109,10.285593 C3.3258109,9.80527721 3.6148109,9.367593 3.6148109,8.59738248 C3.6148109,5.81306669 2.7488109,2.21590879 2.7488109,1.56980353 C2.7488109,-0.545670155 4.8638109,-0.466091208 5.3458109,1.465593 C5.5778109,2.3987509 6.3798109,6.01106669 6.3798109,6.01106669 C6.3798109,6.01106669 7.8098109,4.87327721 8.8068109,6.08211932 C9.1848109,5.74580353 11.0248109,5.79790879 11.4038109,6.59843511 C12.6478109,6.10864563 13.9728109,8.11043511 13.9728109,8.38706669 C13.9728109,10.1406456 13.9998109,9.86496142 13.9998109,11.9804351 C13.9998109,14.0959088 12.2688109,17.0526456 12.2688109,17.0526456 L4.4798109,17.0526456" id="Imported-Layers-Copy" sketch:type="MSShapeGroup"></path>
            </g>
        </g>
    </g>
</svg>