<?xml version="1.0" encoding="UTF-8" standalone="no"?>
<svg width="16px" height="20px" viewBox="0 0 16 20" version="1.1" xmlns="http://www.w3.org/2000/svg" xmlns:xlink="http://www.w3.org/1999/xlink" xmlns:sketch="http://www.bohemiancoding.com/sketch/ns">
    <!-- Generator: Sketch 3.3.3 (12081) - http://www.bohemiancoding.com/sketch -->
    <title>Imported Layers</title>
    <desc>Created with Sketch.</desc>
    <defs></defs>
    <g id="Page-1" stroke="none" stroke-width="1" fill="none" fill-rule="evenodd" sketch:type="MSPage">
        <g id="B00-Copy-6" sketch:type="MSArtboardGroup" transform="translate(-20.000000, -119.000000)" fill="#95A8BA">
            <g id="SETUP-+-Imported-Layers" sketch:type="MSLayerGroup" transform="translate(20.000000, 119.000000)">
                <path d="M15.759,11 L13.674,11 C13.337,11.835 12.591,12.57 11.599,13.105 L10.089,9.33 C11.167,8.612 11.88,7.389 11.88,6 C11.88,4.142 10.6,2.589 8.88,2.142 L8.88,0 L6.88,0 L6.88,2.142 C5.16,2.589 3.88,4.142 3.88,6 C3.88,7.389 4.593,8.612 5.671,9.33 L4.161,13.105 C3.169,12.57 2.423,11.835 2.086,11 L0,11 C0.371,12.648 1.642,14.066 3.415,14.968 L1.951,18.629 L3.809,19.371 L5.289,15.671 C6.102,15.881 6.972,16 7.88,16 C8.788,16 9.658,15.881 10.471,15.671 L11.951,19.371 L13.809,18.629 L12.345,14.968 C14.118,14.066 15.389,12.648 15.759,11 L15.759,11 Z M7.88,4 C8.983,4 9.88,4.897 9.88,6 C9.88,7.102 8.983,8 7.88,8 C6.777,8 5.88,7.102 5.88,6 C5.88,4.897 6.777,4 7.88,4 L7.88,4 Z M7.88,14 C7.24,14 6.623,13.923 6.04,13.792 L7.57,9.969 C7.674,9.976 7.774,10 7.88,10 C7.986,10 8.086,9.976 8.19,9.969 L9.72,13.792 C9.137,13.923 8.52,14 7.88,14 L7.88,14 Z" id="Imported-Layers" sketch:type="MSShapeGroup"></path>
            </g>
        </g>
    </g>
</svg>