<?xml version="1.0" encoding="UTF-8" standalone="no"?>
<svg width="743px" height="124px" viewBox="0 0 743 124" version="1.1" xmlns="http://www.w3.org/2000/svg" xmlns:xlink="http://www.w3.org/1999/xlink" xmlns:sketch="http://www.bohemiancoding.com/sketch/ns">
    <!-- Generator: Sketch 3.4.3 (16044) - http://www.bohemiancoding.com/sketch -->
    <title>lucid-logos</title>
    <desc>Created with Sketch.</desc>
    <defs></defs>
    <g id="Page-1" stroke="none" stroke-width="1" fill="none" fill-rule="evenodd" sketch:type="MSPage">
        <g id="lucid-logos" sketch:type="MSArtboardGroup" fill="#777777">
            <g id="press" sketch:type="MSLayerGroup" transform="translate(300.000000, 37.000000)">
                <path d="M0.4,1.7 L9.7,1.7 L9.7,9.9 L9.9,9.9 C12.5,6.9 15.4,4.5 18.8,2.8 C22.2,1.1 25.9,0.3 30,0.3 C34.4,0.3 38.4,1 42,2.5 C45.6,4 48.7,6 51.3,8.7 C53.9,11.3 55.9,14.5 57.3,18 C58.7,21.6 59.5,25.5 59.5,29.7 C59.5,33.9 58.8,37.9 57.3,41.4 C55.9,45 53.9,48.1 51.4,50.7 C48.9,53.3 45.9,55.4 42.5,56.9 C39.1,58.4 35.4,59.1 31.5,59.1 C26.5,59.1 22.1,58 18.3,55.8 C14.5,53.6 11.7,50.9 10,47.7 L9.8,47.7 L9.8,85 L0.5,85 L0.5,1.7 L0.4,1.7 Z M10.7,29.8 C10.7,32.8 11.2,35.5 12.1,38 C13,40.5 14.4,42.7 16.1,44.6 C17.9,46.5 20,48 22.4,49 C24.8,50.1 27.6,50.6 30.6,50.6 C33.6,50.6 36.4,50.1 38.8,49 C41.2,47.9 43.3,46.4 45.1,44.6 C46.9,42.7 48.2,40.5 49.1,38 C50,35.5 50.5,32.7 50.5,29.8 C50.5,26.8 50,24.1 49.1,21.6 C48.2,19.1 46.8,16.9 45.1,15 C43.3,13.1 41.2,11.6 38.8,10.6 C36.4,9.5 33.6,9 30.6,9 C27.6,9 24.8,9.5 22.4,10.6 C20,11.7 17.9,13.2 16.1,15 C14.3,16.9 13,19.1 12.1,21.6 C11.2,24.1 10.7,26.8 10.7,29.8 L10.7,29.8 Z" id="p" sketch:type="MSShapeGroup"></path>
                <path d="M161,47.6 C157.6,51.9 154,54.9 150,56.7 C146,58.4 141.4,59.3 136.1,59.3 C131.7,59.3 127.8,58.5 124.2,57 C120.7,55.4 117.7,53.3 115.3,50.7 C112.9,48.1 111,44.9 109.7,41.4 C108.4,37.8 107.7,34 107.7,29.9 C107.7,25.6 108.4,21.6 109.9,18 C111.3,14.4 113.3,11.2 115.9,8.7 C118.5,6.1 121.5,4.1 125,2.6 C128.5,1.2 132.3,0.4 136.5,0.4 C140.4,0.4 144,1.1 147.3,2.4 C150.6,3.7 153.4,5.6 155.7,8.2 C158.1,10.7 159.9,13.8 161.2,17.4 C162.5,21 163.1,25.2 163.1,29.8 L163.1,32.8 L117.8,32.8 C118,35.2 118.5,37.5 119.5,39.7 C120.5,41.9 121.8,43.8 123.4,45.5 C125,47.1 126.9,48.4 129,49.4 C131.2,50.4 133.5,50.8 136.1,50.8 C140.2,50.8 143.6,50.1 146.4,48.6 C149.2,47.2 151.7,45 153.9,42.2 L161,47.6 L161,47.6 Z M153,24.7 C152.8,19.9 151.3,16.1 148.3,13.2 C145.3,10.3 141.3,8.9 136.1,8.9 C130.9,8.9 126.7,10.3 123.5,13.2 C120.3,16.1 118.4,19.9 117.8,24.7 L153,24.7 L153,24.7 Z" id="e" sketch:type="MSShapeGroup"></path>
                <path d="M178.8,43.1 C180.6,45.4 182.7,47.3 184.8,48.6 C187,50 189.8,50.6 193.1,50.6 C194.5,50.6 196,50.4 197.5,50.1 C199,49.8 200.3,49.3 201.5,48.5 C202.7,47.8 203.7,46.9 204.4,45.8 C205.1,44.7 205.5,43.4 205.5,41.9 C205.5,40.4 205.2,39.1 204.5,38.2 C203.8,37.2 202.9,36.4 201.8,35.7 C200.7,35 199.4,34.5 198,34.1 C196.6,33.7 195.1,33.3 193.6,33 C191,32.4 188.5,31.8 186.1,31.1 C183.7,30.4 181.6,29.4 179.8,28.3 C178,27.1 176.6,25.6 175.5,23.8 C174.4,22 173.9,19.6 173.9,16.7 C173.9,14 174.5,11.6 175.7,9.5 C176.9,7.4 178.5,5.7 180.5,4.3 C182.5,2.9 184.7,1.9 187.2,1.2 C189.7,0.5 192.2,0.1 194.9,0.1 C198.9,0.1 202.6,0.9 206,2.5 C209.4,4.1 212,6.7 214,10.3 L206.2,15.5 C205,13.5 203.4,11.9 201.5,10.6 C199.5,9.4 197.2,8.7 194.4,8.7 C193.1,8.7 191.8,8.9 190.5,9.2 C189.2,9.5 188,10 187,10.6 C186,11.2 185.1,12.1 184.4,13.1 C183.7,14.1 183.4,15.2 183.4,16.5 C183.4,17.7 183.8,18.7 184.5,19.6 C185.3,20.4 186.3,21.2 187.6,21.8 C188.9,22.4 190.4,23 192.1,23.5 C193.8,24 195.6,24.4 197.4,24.7 C199.9,25.2 202.2,25.8 204.5,26.6 C206.7,27.4 208.7,28.4 210.4,29.7 C212.1,31 213.4,32.6 214.4,34.5 C215.4,36.4 215.8,38.8 215.8,41.6 C215.8,44.8 215.2,47.5 213.9,49.8 C212.6,52 210.9,53.9 208.8,55.3 C206.7,56.7 204.3,57.7 201.6,58.4 C198.9,59 196.2,59.4 193.4,59.4 C188.6,59.4 184.5,58.7 181,57.2 C177.5,55.7 174.4,53 171.6,49 L178.8,43.1 L178.8,43.1 Z" id="s" sketch:type="MSShapeGroup"></path>
                <path d="M229.8,43.1 C231.6,45.4 233.7,47.3 235.8,48.6 C238,50 240.8,50.6 244.1,50.6 C245.5,50.6 247,50.4 248.5,50.1 C250,49.8 251.3,49.3 252.5,48.5 C253.7,47.8 254.7,46.9 255.4,45.8 C256.1,44.7 256.5,43.4 256.5,41.9 C256.5,40.4 256.2,39.1 255.5,38.2 C254.8,37.2 253.9,36.4 252.8,35.7 C251.7,35 250.4,34.5 249,34.1 C247.6,33.7 246.1,33.3 244.6,33 C242,32.4 239.5,31.8 237.1,31.1 C234.7,30.4 232.6,29.4 230.8,28.3 C229,27.1 227.6,25.6 226.5,23.8 C225.4,22 224.9,19.6 224.9,16.7 C224.9,14 225.5,11.6 226.7,9.5 C227.9,7.4 229.5,5.7 231.5,4.3 C233.5,2.9 235.7,1.9 238.2,1.2 C240.7,0.5 243.2,0.1 245.9,0.1 C249.9,0.1 253.6,0.9 257,2.5 C260.4,4.1 263,6.7 265,10.3 L257.2,15.5 C256,13.5 254.4,11.9 252.5,10.6 C250.5,9.4 248.2,8.7 245.4,8.7 C244.1,8.7 242.8,8.9 241.5,9.2 C240.2,9.5 239,10 238,10.6 C237,11.2 236.1,12.1 235.4,13.1 C234.7,14.1 234.4,15.2 234.4,16.5 C234.4,17.7 234.8,18.7 235.5,19.6 C236.3,20.4 237.3,21.2 238.6,21.8 C239.9,22.4 241.4,23 243.2,23.5 C244.9,24 246.7,24.4 248.5,24.7 C251,25.2 253.3,25.8 255.6,26.6 C257.8,27.4 259.8,28.4 261.5,29.7 C263.2,31 264.5,32.6 265.5,34.5 C266.5,36.4 266.9,38.8 266.9,41.6 C266.9,44.8 266.3,47.5 265,49.8 C263.7,52 262,53.9 259.9,55.3 C257.8,56.7 255.4,57.7 252.7,58.4 C250,59 247.3,59.4 244.5,59.4 C239.7,59.4 235.6,58.7 232.1,57.2 C228.6,55.7 225.5,53 222.7,49 L229.8,43.1 L229.8,43.1 Z" id="s" sketch:type="MSShapeGroup"></path>
                <path d="M69.1,1.7 L78.6,1.7 L78.6,8.6 C79.2,7.2 81.2,3 88.9,1.1 C92.9,0.1 94.9,0.2 95.9,0.2 C96.6,0.2 98.2,0.3 98.9,0.4 C99.5,0.5 100.2,0.6 100.8,0.9 L100.2,10.4 C98.6,9.9 96.9,9.7 95.2,9.7 C89.4,9.7 85.3,11.6 82.7,15.3 C80.1,19 78.8,24.1 78.8,30.6 L78.8,58 L69.3,58 C69.1,57.9 69.1,3.6 69.1,1.7 L69.1,1.7 Z" id="r" sketch:type="MSShapeGroup"></path>
            </g>
            <g id="lucid" sketch:type="MSLayerGroup" transform="translate(3.000000, 3.000000)">
                <path d="M117.8,91.7 L100.5,91.7 L100.5,83.8 L100.3,83.8 C99.7,84.9 98.8,86 97.8,87.2 C96.8,88.3 95.6,89.3 94.1,90.2 C92.7,91.1 91,91.8 89.2,92.4 C87.4,93 85.4,93.2 83.2,93.2 C78.6,93.2 74.9,92.5 72.1,91.1 C69.3,89.7 67.1,87.8 65.5,85.3 C63.9,82.8 62.9,79.9 62.4,76.5 C61.9,73.1 61.6,69.5 61.6,65.6 L61.6,33.4 L79.6,33.4 L79.6,62 C79.6,63.7 79.7,65.4 79.8,67.2 C79.9,69 80.3,70.7 80.9,72.2 C81.5,73.7 82.4,75 83.7,75.9 C84.9,76.9 86.7,77.3 89,77.3 C91.3,77.3 93.2,76.9 94.6,76 C96,75.2 97.1,74 97.9,72.6 C98.7,71.2 99.2,69.6 99.4,67.9 C99.6,66.1 99.8,64.3 99.8,62.4 L99.8,33.4 L117.8,33.4 L117.8,91.7 L117.8,91.7 Z" id="Shape" sketch:type="MSShapeGroup"></path>
                <path d="M0.2,0.7 L18.9,0.7 L18.9,74.4 L53.6,74.4 L53.6,91.7 L0.2,91.7 L0.2,0.7 L0.2,0.7 Z" id="Shape" sketch:type="MSShapeGroup"></path>
                <path d="M168,52.2 C167.1,50.9 165.9,49.9 164.3,49 C162.7,48.2 161,47.7 159.1,47.7 C154.5,47.7 151,49.1 148.5,51.8 C146,54.5 144.7,58.1 144.7,62.5 C144.7,66.9 146,70.5 148.5,73.2 C151,75.9 154.6,77.3 159.1,77.3 C161.1,77.3 162.8,76.9 164.3,76 C165.7,75.1 167,74.1 168,72.9 L179.9,85.4 C177.1,88.3 173.8,90.3 170,91.5 C166.2,92.7 162.6,93.2 159.1,93.2 C154.6,93.2 150.4,92.5 146.4,91 C142.4,89.6 139,87.5 136.1,84.8 C133.2,82.1 130.9,78.9 129.2,75.1 C127.5,71.3 126.7,67.1 126.7,62.5 C126.7,57.9 127.5,53.7 129.2,49.9 C130.9,46.1 133.2,42.9 136.1,40.2 C139,37.5 142.5,35.5 146.4,34 C150.4,32.6 154.6,31.8 159.1,31.8 C162.5,31.8 166.2,32.4 170,33.5 C173.8,34.7 177.1,36.7 179.9,39.6 L168,52.2 L168,52.2 Z" id="Shape" sketch:type="MSShapeGroup"></path>
                <path d="M188.2,10.9 C188.2,8 189.2,5.6 191.3,3.5 C193.3,1.5 195.8,0.4 198.7,0.4 C201.6,0.4 204,1.4 206.1,3.5 C208.1,5.5 209.2,8 209.2,10.9 C209.2,13.8 208.2,16.2 206.1,18.3 C204.1,20.3 201.6,21.4 198.7,21.4 C195.8,21.4 193.4,20.4 191.3,18.3 C189.3,16.3 188.2,13.8 188.2,10.9 L188.2,10.9 Z M189.6,33.4 L207.6,33.4 L207.6,91.7 L189.6,91.7 L189.6,33.4 L189.6,33.4 Z" id="Shape" sketch:type="MSShapeGroup"></path>
                <path d="M280.8,91.7 L264.2,91.7 L264.2,84 L264,84 C263.3,85 262.3,86.1 261.2,87.2 C260,88.3 258.7,89.3 257.1,90.1 C255.5,91 253.8,91.7 251.9,92.3 C250,92.9 248.1,93.1 246.1,93.1 C241.8,93.1 237.9,92.4 234.3,90.9 C230.8,89.4 227.8,87.3 225.2,84.7 C222.7,82 220.7,78.8 219.4,75.2 C218,71.5 217.4,67.5 217.4,63.1 C217.4,59 218,55.1 219.3,51.4 C220.5,47.7 222.3,44.4 224.6,41.5 C226.9,38.6 229.7,36.3 232.9,34.6 C236.2,32.9 239.9,32 244.1,32 C247.9,32 251.4,32.6 254.6,33.7 C257.8,34.9 260.5,36.8 262.6,39.6 L262.8,39.6 L262.8,0.6 L280.8,0.6 L280.8,91.7 L280.8,91.7 Z M262.3,62.5 C262.3,58.1 261,54.5 258.5,51.8 C256,49.1 252.4,47.7 247.9,47.7 C243.3,47.7 239.8,49.1 237.3,51.8 C234.8,54.5 233.5,58.1 233.5,62.5 C233.5,66.9 234.8,70.5 237.3,73.2 C239.8,75.9 243.4,77.3 247.9,77.3 C252.5,77.3 256,75.9 258.5,73.2 C261,70.5 262.3,66.9 262.3,62.5 L262.3,62.5 Z" id="Shape" sketch:type="MSShapeGroup"></path>
            </g>
            <g id="software" sketch:type="MSLayerGroup" transform="translate(296.000000, 2.000000)">
                <path d="M7.3,78.2 C9.1,80.5 11.2,82.4 13.4,83.7 C15.6,85.1 18.4,85.7 21.7,85.7 C23.1,85.7 24.6,85.5 26.1,85.2 C27.6,84.9 28.9,84.4 30.1,83.6 C31.3,82.9 32.3,82 33,80.9 C33.7,79.8 34.1,78.5 34.1,77 C34.1,75.5 33.8,74.2 33.1,73.3 C32.4,72.3 31.5,71.5 30.4,70.8 C29.3,70.1 28,69.6 26.6,69.2 C25.2,68.8 23.7,68.4 22.2,68.1 C19.6,67.5 17,66.9 14.6,66.2 C12.2,65.5 10.1,64.5 8.3,63.4 C6.5,62.2 5.1,60.7 4,58.9 C2.9,57.1 2.4,54.7 2.4,51.8 C2.4,49.1 3,46.7 4.2,44.6 C5.4,42.5 7,40.8 9,39.4 C11,38 13.2,37 15.7,36.3 C18.2,35.6 20.7,35.2 23.4,35.2 C27.4,35.2 31.1,36 34.5,37.6 C37.9,39.2 40.6,41.8 42.5,45.4 L34.7,50.6 C33.5,48.6 31.9,47 30,45.7 C28,44.5 25.7,43.8 22.9,43.8 C21.6,43.8 20.3,44 19,44.3 C17.7,44.6 16.5,45.1 15.5,45.7 C14.5,46.3 13.6,47.2 12.9,48.2 C12.2,49.2 11.9,50.3 11.9,51.6 C11.9,52.8 12.3,53.8 13,54.7 C13.8,55.5 14.8,56.3 16.1,56.9 C17.4,57.5 18.9,58.1 20.7,58.6 C22.4,59.1 24.2,59.5 26,59.8 C28.5,60.3 30.8,60.9 33.1,61.7 C35.3,62.5 37.3,63.5 39,64.8 C40.7,66.1 42,67.7 43,69.6 C44,71.5 44.4,73.9 44.4,76.7 C44.4,79.9 43.8,82.6 42.5,84.9 C41.2,87.1 39.5,89 37.4,90.4 C35.3,91.8 32.9,92.8 30.2,93.5 C27.5,94.1 24.8,94.5 22,94.5 C17.2,94.5 13.1,93.8 9.6,92.3 C6.1,90.8 3,88.1 0.2,84.1 L7.3,78.2 L7.3,78.2 Z" id="s" sketch:type="MSShapeGroup"></path>
                <path d="M51,64.9 C51,60.5 51.8,56.5 53.3,52.9 C54.8,49.3 56.9,46.2 59.5,43.6 C62.1,41 65.3,39 69,37.5 C72.7,36.1 76.7,35.3 81,35.3 C85.3,35.3 89.3,36 93,37.5 C96.7,38.9 99.8,41 102.5,43.6 C105.1,46.2 107.2,49.3 108.7,52.9 C110.2,56.5 111,60.5 111,64.9 C111,69.3 110.2,73.3 108.7,76.9 C107.2,80.5 105.1,83.6 102.5,86.2 C99.9,88.8 96.7,90.8 93,92.3 C89.3,93.7 85.3,94.5 81,94.5 C76.7,94.5 72.7,93.8 69,92.3 C65.3,90.9 62.2,88.8 59.5,86.2 C56.9,83.6 54.8,80.5 53.3,76.9 C51.8,73.3 51,69.3 51,64.9 L51,64.9 Z M61.1,64.9 C61.1,67.9 61.6,70.6 62.5,73.1 C63.4,75.6 64.8,77.8 66.5,79.7 C68.3,81.6 70.4,83.1 72.8,84.1 C75.2,85.2 78,85.7 81,85.7 C84,85.7 86.8,85.2 89.2,84.1 C91.6,83 93.7,81.5 95.5,79.7 C97.3,77.8 98.6,75.6 99.5,73.1 C100.4,70.6 100.9,67.8 100.9,64.9 C100.9,61.9 100.4,59.2 99.5,56.7 C98.6,54.2 97.2,52 95.5,50.1 C93.7,48.2 91.6,46.7 89.2,45.7 C86.8,44.6 84,44.1 81,44.1 C78,44.1 75.2,44.6 72.8,45.7 C70.4,46.8 68.3,48.3 66.5,50.1 C64.7,52 63.4,54.2 62.5,56.7 C61.6,59.2 61.1,61.9 61.1,64.9 L61.1,64.9 Z" id="o" sketch:type="MSShapeGroup"></path>
                <path d="M128.4,44.7 L116.2,44.7 L116.2,36.8 L128.4,36.8 L128.4,24.2 C128.4,20.8 128.7,17.6 129.4,14.8 C130,12 131.1,9.5 132.7,7.4 C134.3,5.3 136.3,3.7 138.9,2.5 C141.5,1.3 144.6,0.8 148.4,0.8 C149.6,0.8 150.9,0.9 152.2,1.2 C153.6,1.4 154.7,1.8 155.6,2.3 L154.3,10.7 C152.1,9.9 149.9,9.5 147.9,9.5 C145.5,9.5 143.6,9.9 142.3,10.8 C140.9,11.6 139.9,12.8 139.2,14.3 C138.5,15.8 138.1,17.6 138,19.6 C137.9,21.7 137.8,23.9 137.8,26.3 L137.8,36.9 L151.5,36.9 L151.5,44.8 L137.8,44.8 L137.8,93 L128.4,93 L128.4,44.7 L128.4,44.7 Z" id="f" sketch:type="MSShapeGroup"></path>
                <path d="M194.1,44.7 L177.5,44.7 L177.5,72.8 C177.5,74.6 177.5,76.3 177.6,77.9 C177.7,79.5 178,80.8 178.6,82 C179.2,83.2 180,84.1 181.1,84.8 C182.2,85.5 183.8,85.8 185.9,85.8 C187.3,85.8 188.7,85.6 190.1,85.3 C191.5,85 192.9,84.5 194.2,83.9 L194.6,92.4 C193,93.1 191.2,93.6 189.3,94 C187.3,94.3 185.5,94.5 183.7,94.5 C180.3,94.5 177.7,94.1 175.7,93.2 C173.7,92.3 172.1,91.1 171,89.5 C169.9,87.9 169.1,85.9 168.8,83.6 C168.4,81.2 168.3,78.6 168.3,75.7 L168.3,44.7 L156.1,44.7 L156.1,36.8 L168.3,36.8 L168.3,20.8 L177.7,20.8 L177.7,36.8 L194.3,36.8 L194.3,44.7 L194.1,44.7 Z" id="t" sketch:type="MSShapeGroup"></path>
                <path d="M265.9,93 L256.7,93 L240.7,49.8 L240.5,49.8 L226.3,93 L216.7,93 L198.5,36.8 L208.8,36.8 L221.6,80 L221.8,80 L236.3,36.8 L246.1,36.8 L260.9,80 L261.1,80 L273.8,36.8 L284,36.8 L265.9,93 L265.9,93 Z" id="w" sketch:type="MSShapeGroup"></path>
                <path d="M291.8,44 C294.7,41 298.1,38.9 302.1,37.5 C306.1,36.1 310.1,35.4 314.2,35.4 C322.5,35.4 328.5,37.4 332.2,41.3 C335.9,45.2 337.7,51.2 337.7,59.2 L337.7,83.3 C337.7,84.9 337.8,86.6 337.9,88.3 C338.1,90 338.3,91.6 338.5,93 L329.5,93 C329.2,91.7 329,90.3 329,88.7 C329,87.1 328.9,85.8 328.9,84.6 L328.7,84.6 C326.9,87.5 324.4,89.8 321.3,91.7 C318.2,93.5 314.5,94.5 310.2,94.5 C307.3,94.5 304.6,94.1 302.1,93.4 C299.6,92.7 297.4,91.6 295.5,90.2 C293.6,88.8 292.1,87.1 291,85 C289.9,82.9 289.3,80.5 289.3,77.8 C289.3,73.2 290.5,69.5 292.9,66.9 C295.3,64.3 298.3,62.3 301.8,61 C305.4,59.7 309.2,58.9 313.3,58.6 C317.4,58.3 321.2,58.1 324.6,58.1 L328.2,58.1 L328.2,56.4 C328.2,52.3 327,49.2 324.5,47.2 C322.1,45.1 318.6,44.1 314.2,44.1 C311.2,44.1 308.2,44.6 305.3,45.6 C302.4,46.6 299.8,48.1 297.6,50.2 L291.8,44 L291.8,44 Z M319,66 C313,66 308.2,66.8 304.7,68.5 C301.2,70.2 299.4,72.9 299.4,76.8 C299.4,80.3 300.6,82.8 302.9,84.3 C305.3,85.8 308.2,86.5 311.7,86.5 C314.4,86.5 316.8,86 318.8,85.1 C320.8,84.2 322.5,83 323.9,81.4 C325.3,79.9 326.3,78.1 327,76.1 C327.7,74.1 328.1,70.1 328.2,67.8 L328.2,66 L319,66 L319,66 Z" id="a" sketch:type="MSShapeGroup"></path>
                <path d="M350.5,36.8 L360,36.8 L360,43.7 C360.6,42.3 362.6,38.1 370.3,36.2 C374.3,35.2 376.3,35.3 377.3,35.3 C378,35.3 379.6,35.4 380.3,35.5 C380.9,35.6 381.6,35.7 382.2,36 L381.6,45.5 C380,45 378.3,44.8 376.6,44.8 C370.8,44.8 366.7,46.7 364.1,50.4 C361.5,54.1 360.2,59.2 360.2,65.7 L360.2,93 L350.7,93 C350.5,93 350.5,38.7 350.5,36.8 L350.5,36.8 Z" id="r" sketch:type="MSShapeGroup"></path>
                <path d="M441.1,82.8 C437.7,87.1 434.1,90.1 430.1,91.9 C426.1,93.6 421.5,94.5 416.2,94.5 C411.8,94.5 407.8,93.7 404.3,92.2 C400.8,90.6 397.8,88.5 395.4,85.9 C393,83.3 391.1,80.1 389.8,76.5 C388.5,72.9 387.8,69.1 387.8,65 C387.8,60.7 388.5,56.7 390,53.1 C391.4,49.5 393.4,46.3 396,43.7 C398.6,41.1 401.6,39.1 405.1,37.6 C408.6,36.2 412.5,35.4 416.6,35.4 C420.5,35.4 424.1,36.1 427.4,37.4 C430.7,38.7 433.5,40.6 435.9,43.2 C438.3,45.7 440.1,48.8 441.4,52.4 C442.7,56 443.3,60.2 443.3,64.8 L443.3,67.8 L397.9,67.8 C398.1,70.2 398.6,72.5 399.6,74.7 C400.6,76.9 401.9,78.8 403.5,80.5 C405.1,82.1 407,83.4 409.1,84.4 C411.3,85.4 413.6,85.8 416.2,85.8 C420.3,85.8 423.7,85.1 426.5,83.6 C429.3,82.2 431.8,80 434.1,77.2 L441.1,82.8 L441.1,82.8 Z M433.1,59.9 C432.9,55.1 431.4,51.3 428.4,48.4 C425.4,45.5 421.4,44.1 416.2,44.1 C411,44.1 406.8,45.5 403.6,48.4 C400.4,51.3 398.5,55.1 397.8,59.9 L433.1,59.9 L433.1,59.9 Z" id="e" sketch:type="MSShapeGroup"></path>
            </g>
            <g id="chart" sketch:type="MSLayerGroup" transform="translate(297.000000, 3.000000)">
                <path d="M42.8569702,49.074352 C40.9293083,46.6887932 38.7748626,44.9848226 36.5070251,43.8488423 C34.2391875,42.7128619 31.6311743,42.2584698 28.9097693,42.2584698 C25.7347967,42.2584698 23.0133917,42.7128619 20.7455542,43.8488423 C18.3643247,44.9848226 16.4366628,46.3479991 14.8491766,48.2791657 C13.2616903,50.2103323 12.1277715,52.368695 11.3340284,54.9814499 C10.5402852,57.4806067 10.0867177,60.2069596 10.0867177,63.0469105 C10.0867177,65.8868614 10.5402852,68.6132143 11.4474202,71.1123711 C12.4679471,73.611528 13.6018659,75.8834887 15.3027441,77.8146553 C16.8902303,79.745822 18.9312841,81.2225964 21.1991217,82.2449788 C23.4669592,83.2673611 26.1883643,83.8353513 28.9097693,83.8353513 C35.0329307,83.8353513 39.7953895,81.5633905 43.1971458,76.905871 L50.1140503,83.6081552 C47.5060371,86.7889002 44.2176727,89.060861 40.5891326,90.4240374 C36.9605926,91.9008119 33.1052687,92.5824001 29.0231612,92.5824001 C24.7142699,92.5824001 20.858946,91.9008119 17.230406,90.4240374 C13.6018659,88.9472629 10.5402852,86.9024983 8.04566393,84.2897434 C5.55104264,81.6769886 3.62338073,78.4962435 2.14928633,74.9747044 C0.675191929,71.3395672 0.108232544,67.477234 0.108232544,63.1605086 C0.108232544,58.9573812 0.788583806,55.0950479 2.14928633,51.4599107 C3.62338073,47.8247736 5.55104264,44.6440285 8.04566393,42.1448717 C10.5402852,39.5321169 13.6018659,37.3737542 17.230406,36.0105777 C20.7455542,34.5338032 24.7142699,33.852215 29.0231612,33.852215 C33.1052687,33.852215 37.0739844,34.5338032 40.8159164,36.0105777 C44.5578483,37.4873522 47.8462128,39.6457149 50.5676178,42.8264599 L42.8569702,49.074352 L42.8569702,49.074352 Z" id="c" sketch:type="MSShapeGroup"></path>
                <path d="M60.6594949,0.454392148 L69.9576288,0.454392148 L69.9576288,42.8264599 L70.1844125,42.8264599 C70.7513719,41.6904796 71.7718988,40.6680972 72.7924257,39.5321169 C73.8129526,38.3961365 75.1736551,37.4873522 76.7611414,36.5785679 C78.3486277,35.7833816 80.0495058,34.9881954 81.9771677,34.4202052 C83.9048296,33.852215 85.9458834,33.6250189 88.1003291,33.6250189 C91.7288692,33.6250189 95.0172336,34.1930091 97.6252468,35.3289895 C100.23326,36.4649699 102.501097,37.9417443 104.315368,40.1001071 C106.129638,42.1448717 107.376948,44.5304305 108.170691,47.3703814 C108.964434,50.2103323 109.418002,53.2774793 109.418002,56.6854204 L109.418002,91.3328217 L100.119868,91.3328217 L100.119868,57.5942047 C100.119868,52.8230872 98.9859493,49.074352 96.9448955,46.4615971 C94.9038417,43.8488423 91.6154773,42.3720678 87.306586,42.3720678 C84.2450053,42.3720678 81.6369921,42.8264599 79.4825464,43.9624403 C77.3281008,45.0984207 75.5138307,46.4615971 74.0397363,48.3927637 C72.5656419,50.3239304 71.6585069,52.5958911 70.8647638,55.208646 C70.1844125,57.8214008 69.8442369,60.7749498 69.8442369,63.9556948 L69.8442369,91.3328217 L60.546103,91.3328217 L60.546103,0.454392148 L60.6594949,0.454392148 Z" id="h" sketch:type="MSShapeGroup"></path>
                <path d="M124.158946,42.2584698 C127.107135,39.3049208 130.395499,37.1465581 134.477607,35.6697836 C138.559714,34.1930091 142.415038,33.6250189 146.610538,33.6250189 C154.888145,33.6250189 160.897914,35.5561856 164.639846,39.5321169 C168.268386,43.3944501 170.196048,49.4151461 170.196048,57.4806067 L170.196048,81.5633905 C170.196048,83.1537631 170.30944,84.8577336 170.422832,86.5617042 C170.536224,88.2656747 170.763007,89.8560472 170.989791,91.3328217 L162.031833,91.3328217 C161.691657,89.9696453 161.578265,88.7200669 161.578265,87.1296944 C161.578265,85.5393218 161.464874,84.1761454 161.464874,83.040165 L161.23809,83.040165 C159.42382,85.993714 156.929198,88.2656747 153.867618,90.0832433 C150.806037,91.9008119 147.064105,92.8095962 142.755214,92.8095962 C139.807025,92.8095962 137.199012,92.4688021 134.704391,91.6736158 C132.209769,90.9920276 129.941932,89.8560472 128.01427,88.4928708 C126.2,87.0160963 124.612513,85.3121258 123.591987,83.2673611 C122.458068,81.2225964 121.891108,78.8370377 121.891108,76.1106848 C121.891108,71.5667633 123.138419,67.9316261 125.519648,65.2052732 C127.900878,62.5925184 130.849067,60.6613517 134.477607,59.2981753 C137.992755,57.9349989 141.848079,57.2534106 145.930186,56.9126165 C150.012294,56.5718224 153.754226,56.4582244 157.269374,56.4582244 L160.897914,56.4582244 L160.897914,54.7542538 C160.897914,50.6647245 159.650603,47.5975775 157.269374,45.5528128 C154.888145,43.5080482 151.486388,42.3720678 146.950713,42.3720678 C143.889133,42.3720678 140.940944,42.8264599 137.992755,43.8488423 C135.044566,44.8712246 132.549945,46.3479991 130.282107,48.3927637 L124.158946,42.2584698 L124.158946,42.2584698 Z M151.146213,64.2964889 C145.136443,64.2964889 140.373984,65.0916752 136.858836,66.7956457 C133.343688,68.4996163 131.529418,71.2259692 131.529418,74.9747044 C131.529418,78.4962435 132.776729,80.9954004 135.044566,82.4721748 C137.312404,83.9489493 140.373984,84.6305375 143.889133,84.6305375 C146.497146,84.6305375 148.991767,84.1761454 151.032821,83.2673611 C153.073875,82.2449788 154.774753,81.1089984 156.135455,79.6322239 C157.496158,78.0418514 158.516685,76.3378808 159.310428,74.2931162 C159.990779,72.2483515 160.444347,70.0899888 160.557738,67.70443 L160.557738,64.0692929 L151.146213,64.0692929 L151.146213,64.2964889 Z" id="a" sketch:type="MSShapeGroup"></path>
                <path d="M186.864654,48.3927637 C186.864654,45.8936069 186.751262,43.3944501 186.63787,41.2360874 C186.524478,38.9641267 186.411086,37.0329601 186.411086,35.1017934 L195.255653,35.1017934 C195.255653,36.6921659 195.255653,38.1689404 195.369045,39.6457149 C195.482437,41.2360874 195.482437,42.7128619 195.482437,44.4168325 L195.70922,44.4168325 C196.27618,43.053656 197.296707,41.8040776 198.317234,40.4409012 C199.564544,39.0777247 200.811855,38.0553424 202.399341,37.0329601 C203.986827,36.0105777 205.801097,35.2153915 207.842151,34.6474013 C209.883205,34.0794111 211.924259,33.852215 214.41888,33.852215 C214.985839,33.852215 215.779583,33.852215 216.346542,33.9658131 C216.913501,34.0794111 217.707244,34.1930091 218.274204,34.4202052 L217.707244,43.8488423 C216.119758,43.3944501 214.41888,43.167254 212.60461,43.167254 C206.821624,43.167254 202.739517,44.9848226 200.018112,48.7335579 C197.52349,52.4822931 196.162788,57.5942047 196.162788,63.9556948 L196.162788,91.3328217 L186.864654,91.3328217 L186.864654,48.3927637 L186.864654,48.3927637 Z" id="r" sketch:type="MSShapeGroup"></path>
                <path d="M259.775631,42.940058 L243.220417,42.940058 L243.220417,70.9987731 C243.220417,72.8163417 243.220417,74.5203123 243.333809,76.1106848 C243.447201,77.7010573 243.673984,79.0642337 244.354336,80.2002141 C244.921295,81.4497925 245.82843,82.2449788 246.848957,82.926567 C247.982876,83.6081552 249.45697,83.9489493 251.724808,83.9489493 C253.08551,83.9489493 254.446213,83.8353513 255.920307,83.4945572 C257.394401,83.1537631 258.641712,82.6993709 260.002415,82.0177827 L260.34259,90.5376355 C258.755104,91.2192237 256.940834,91.7872139 255.013172,92.128008 C253.08551,92.4688021 251.157848,92.5824001 249.45697,92.5824001 C246.055214,92.5824001 243.447201,92.128008 241.519539,91.2192237 C239.478485,90.4240374 238.00439,89.174459 236.75708,87.4704885 C235.623161,85.8801159 234.94281,83.8353513 234.602634,81.5633905 C234.262459,79.2914298 234.149067,76.5650769 234.149067,73.725126 L234.149067,42.940058 L221.902744,42.940058 L221.902744,35.1017934 L234.149067,35.1017934 L234.149067,19.0844702 L243.447201,19.0844702 L243.447201,35.1017934 L260.002415,35.1017934 L260.002415,42.940058 L259.775631,42.940058 L259.775631,42.940058 Z" id="t" sketch:type="MSShapeGroup"></path>
            </g>
        </g>
    </g>
</svg>