<?xml version="1.0" encoding="UTF-8" standalone="no"?>
<svg width="77px" height="77px" viewBox="0 0 77 77" version="1.1" xmlns="http://www.w3.org/2000/svg" xmlns:xlink="http://www.w3.org/1999/xlink" xmlns:sketch="http://www.bohemiancoding.com/sketch/ns">
    <!-- Generator: Sketch 3.3.3 (12081) - http://www.bohemiancoding.com/sketch -->
    <title>particle</title>
    <desc>Created with Sketch.</desc>
    <defs></defs>
    <g id="Page-1" stroke="none" stroke-width="1" fill="none" fill-rule="evenodd" sketch:type="MSPage">
        <g id="Artboard-1" sketch:type="MSArtboardGroup" transform="translate(-87.000000, -11.000000)">
            <g id="particle" sketch:type="MSLayerGroup" transform="translate(88.000000, 12.000000)">
                <path d="M57.2835669,42.5450959 L57.2835669,42.5450959 C55.4397361,42.496123 53.6889539,41.7896885 52.3519929,40.4551762 C51.0297238,39.1329071 50.4616379,37.4029384 50.4555163,35.666848 L50.4542919,35.6692967 C50.4383757,34.7351381 50.0784247,33.8046524 49.3646443,33.090872 C47.908924,31.636376 45.5484288,31.636376 44.0927085,33.090872 C42.6357638,34.5490409 42.6357638,36.9070875 44.0927085,38.3652564 C44.8064889,39.0778125 45.7345259,39.4389879 46.6699089,39.4536798 L46.6662359,39.4549041 C48.4121208,39.4549041 50.1139301,40.0082982 51.4447694,41.3415862 C52.7584682,42.6540607 53.4624541,44.4048429 53.5469324,46.2033737 C53.5310162,47.1791593 53.8934159,48.1622908 54.6378044,48.9079037 C56.0935247,50.3660726 58.4527955,50.3660726 59.9072915,48.9079037 C61.3642362,47.4509591 61.3642362,45.0916882 59.9072915,43.6359679 C59.1837165,42.9123929 58.234866,42.5475446 57.2835669,42.5450959" id="blob-2" fill="#8CBF3F" sketch:type="MSShapeGroup"></path>
                <path d="M32.4680586,50.3617704 L32.4680586,50.3617704 C30.5790796,50.3115983 28.7854275,49.5878659 27.4157296,48.2206766 C26.0610833,46.8660303 25.4790871,45.0937014 25.4728156,43.315101 L25.4715613,43.3176096 C25.4552554,42.360577 25.0864905,41.4073074 24.3552324,40.6760493 C22.8638672,39.1859383 20.4455726,39.1859383 18.9542074,40.6760493 C17.4615879,42.1699231 17.4615879,44.585709 18.9542074,46.0795829 C19.6854655,46.8095867 20.6362266,47.1796058 21.5945134,47.1946575 L21.5907505,47.1959118 C23.3793853,47.1959118 25.1228653,47.7628563 26.4862917,49.1287914 C27.8321579,50.4734032 28.5533816,52.2670553 28.6399285,54.1096251 C28.6236226,55.1093039 28.994896,56.1165086 29.7575117,56.8803786 C31.2488769,58.3742524 33.6659171,58.3742524 35.1560281,56.8803786 C36.6486476,55.387759 36.6486476,52.9707188 35.1560281,51.4793536 C34.4147355,50.738061 33.4426514,50.364279 32.4680586,50.3617704" id="blob-1" fill="#FA8D28" sketch:type="MSShapeGroup" transform="translate(27.055118, 48.779625) rotate(-270.000000) translate(-27.055118, -48.779625) "></path>
                <circle id="edge" stroke="#FFFFFF" sketch:type="MSShapeGroup" cx="37.5" cy="37.5" r="37.5"></circle>
                <path d="M31.8287637,23.8258086 C30.2671154,25.3887703 27.7348547,25.3887703 26.1732064,23.8258086 C24.6089312,22.2654736 24.6089312,19.7345264 26.1732064,18.1702512 C27.7348547,16.6099163 30.2671154,16.6099163 31.8287637,18.1702512 C33.3904121,19.7345264 33.3904121,22.2641602 31.8287637,23.8258086" id="dot" fill="#29AAE1" sketch:type="MSShapeGroup"></path>
            </g>
        </g>
    </g>
</svg>