<?xml version="1.0" encoding="UTF-8" standalone="no"?>
<svg width="165px" height="19px" viewBox="0 0 165 19" version="1.1" xmlns="http://www.w3.org/2000/svg" xmlns:xlink="http://www.w3.org/1999/xlink" xmlns:sketch="http://www.bohemiancoding.com/sketch/ns">
    <!-- Generator: Sketch 3.3.3 (12081) - http://www.bohemiancoding.com/sketch -->
    <title>Lucid Particle Desig</title>
    <desc>Created with Sketch.</desc>
    <defs></defs>
    <g id="Page-1" stroke="none" stroke-width="1" fill="none" fill-rule="evenodd" sketch:type="MSPage">
        <g id="Artboard-1" sketch:type="MSArtboardGroup" transform="translate(-42.000000, -98.000000)" fill="#FFFFFF">
            <path d="M42.386,112 L49.676,112 L49.676,109.768 L45.032,109.768 L45.032,100.264 L42.386,100.264 L42.386,112 Z M53.996,112.216 C55.22,112.216 56.048,111.658 56.804,110.758 L56.858,110.758 L57.056,112 L59.216,112 L59.216,103.072 L56.57,103.072 L56.57,108.976 C56.048,109.678 55.652,109.966 54.986,109.966 C54.212,109.966 53.87,109.552 53.87,108.274 L53.87,103.072 L51.224,103.072 L51.224,108.616 C51.224,110.848 52.052,112.216 53.996,112.216 L53.996,112.216 Z M65.426,112.216 C66.398,112.216 67.496,111.928 68.378,111.154 L67.334,109.426 C66.866,109.786 66.308,110.074 65.732,110.074 C64.58,110.074 63.734,109.084 63.734,107.536 C63.734,105.988 64.544,104.998 65.822,104.998 C66.236,104.998 66.596,105.16 67.028,105.52 L68.27,103.81 C67.604,103.252 66.758,102.856 65.66,102.856 C63.194,102.856 61.016,104.566 61.016,107.536 C61.016,110.506 62.942,112.216 65.426,112.216 L65.426,112.216 Z M69.944,112 L72.59,112 L72.59,103.072 L69.944,103.072 L69.944,112 Z M71.258,101.758 C72.158,101.758 72.788,101.182 72.788,100.372 C72.788,99.562 72.158,99.004 71.258,99.004 C70.376,99.004 69.728,99.562 69.728,100.372 C69.728,101.182 70.376,101.758 71.258,101.758 L71.258,101.758 Z M78.098,112.216 C78.962,112.216 79.844,111.748 80.474,111.118 L80.546,111.118 L80.726,112 L82.886,112 L82.886,99.382 L80.24,99.382 L80.24,102.424 L80.348,103.792 C79.736,103.216 79.142,102.856 78.152,102.856 C76.262,102.856 74.444,104.62 74.444,107.536 C74.444,110.452 75.884,112.216 78.098,112.216 L78.098,112.216 Z M78.782,110.056 C77.756,110.056 77.162,109.264 77.162,107.5 C77.162,105.808 77.918,105.016 78.764,105.016 C79.25,105.016 79.772,105.16 80.24,105.592 L80.24,109.246 C79.808,109.84 79.358,110.056 78.782,110.056 L78.782,110.056 Z M90.68,104.89 L92.768,104.89 C93.3440029,104.89 93.832998,104.830001 94.235,104.71 C94.637002,104.589999 94.9579988,104.431001 95.198,104.233 C95.4380012,104.034999 95.6119995,103.801001 95.72,103.531 C95.8280005,103.260999 95.882,102.970002 95.882,102.658 C95.882,102.357999 95.8280005,102.073001 95.72,101.803 C95.6119995,101.532999 95.4380012,101.296001 95.198,101.092 C94.9579988,100.887999 94.637002,100.729001 94.235,100.615 C93.832998,100.500999 93.3440029,100.444 92.768,100.444 L90.68,100.444 L90.68,104.89 Z M89.384,99.256 L93.092,99.256 C94.3880065,99.256 95.4109962,99.5379972 96.161,100.102 C96.9110037,100.666003 97.286,101.517994 97.286,102.658 C97.286,103.798006 96.9110037,104.652997 96.161,105.223 C95.4109962,105.793003 94.3880065,106.078 93.092,106.078 L90.68,106.078 L90.68,112 L89.384,112 L89.384,99.256 Z M104.072,107.806 C103.771998,107.806 103.397002,107.821 102.947,107.851 C102.496998,107.881 102.065002,107.952999 101.651,108.067 C101.236998,108.181001 100.883001,108.357999 100.589,108.598 C100.294999,108.838001 100.148,109.167998 100.148,109.588 C100.148,109.864001 100.204999,110.100999 100.319,110.299 C100.433001,110.497001 100.585999,110.658999 100.778,110.785 C100.970001,110.911001 101.182999,111.001 101.417,111.055 C101.651001,111.109 101.887999,111.136 102.128,111.136 C102.560002,111.136 102.934998,111.064001 103.253,110.92 C103.571002,110.775999 103.837999,110.581001 104.054,110.335 C104.270001,110.088999 104.428999,109.801002 104.531,109.471 C104.633001,109.140998 104.684,108.790002 104.684,108.418 L104.684,107.806 L104.072,107.806 Z M104.684,106.834 L104.684,106.618 C104.684,105.165993 103.964007,104.44 102.524,104.44 C101.539995,104.44 100.682004,104.769997 99.95,105.43 L99.23,104.584 C100.022004,103.767996 101.209992,103.36 102.794,103.36 C103.202002,103.36 103.594998,103.419999 103.973,103.54 C104.351002,103.660001 104.677999,103.842999 104.954,104.089 C105.230001,104.335001 105.451999,104.643998 105.62,105.016 C105.788001,105.388002 105.872,105.831997 105.872,106.348 L105.872,110.11 C105.872,110.434002 105.887,110.772998 105.917,111.127 C105.947,111.481002 105.98,111.771999 106.016,112 L104.864,112 C104.828,111.795999 104.801,111.574001 104.783,111.334 C104.765,111.093999 104.756,110.860001 104.756,110.632 L104.72,110.632 C104.371998,111.196003 103.961002,111.600999 103.487,111.847 C103.012998,112.093001 102.434003,112.216 101.75,112.216 C101.377998,112.216 101.018002,112.165001 100.67,112.063 C100.321998,111.960999 100.013001,111.805001 99.743,111.595 C99.4729986,111.384999 99.2570008,111.127002 99.095,110.821 C98.9329992,110.514998 98.852,110.158002 98.852,109.75 C98.852,109.065997 99.0289982,108.529002 99.383,108.139 C99.7370018,107.748998 100.180997,107.458001 100.715,107.266 C101.249003,107.073999 101.818997,106.954 102.425,106.906 C103.031003,106.858 103.585997,106.834 104.09,106.834 L104.684,106.834 Z M108.752,106.204 C108.752,105.831998 108.743,105.454002 108.725,105.07 C108.707,104.685998 108.692,104.188003 108.68,103.576 L109.85,103.576 L109.85,105.142 L109.886,105.142 C109.97,104.913999 110.089999,104.695001 110.246,104.485 C110.402001,104.274999 110.590999,104.086001 110.813,103.918 C111.035001,103.749999 111.292999,103.615001 111.587,103.513 C111.881001,103.410999 112.213998,103.36 112.586,103.36 C112.922002,103.36 113.215999,103.396 113.468,103.468 L113.234,104.638 C113.077999,104.578 112.850001,104.548 112.55,104.548 C112.093998,104.548 111.704002,104.634999 111.38,104.809 C111.055998,104.983001 110.786001,105.204999 110.57,105.475 C110.353999,105.745001 110.195001,106.035998 110.093,106.348 C109.990999,106.660002 109.94,106.959999 109.94,107.248 L109.94,112 L108.752,112 L108.752,106.204 Z M118.958,104.656 L116.528,104.656 L116.528,109.624 C116.528,109.936002 116.558,110.190999 116.618,110.389 C116.678,110.587001 116.761999,110.739999 116.87,110.848 C116.978001,110.956001 117.106999,111.031 117.257,111.073 C117.407001,111.115 117.571999,111.136 117.752,111.136 C117.956001,111.136 118.165999,111.106 118.382,111.046 C118.598001,110.986 118.795999,110.908 118.976,110.812 L119.03,111.91 C118.585998,112.114001 118.052003,112.216 117.428,112.216 C117.199999,112.216 116.963001,112.186 116.717,112.126 C116.470999,112.066 116.246001,111.952001 116.042,111.784 C115.837999,111.615999 115.670001,111.388001 115.538,111.1 C115.405999,110.811999 115.34,110.434002 115.34,109.966 L115.34,104.656 L113.558,104.656 L113.558,103.576 L115.34,103.576 L115.34,101.2 L116.528,101.2 L116.528,103.576 L118.958,103.576 L118.958,104.656 Z M122.306,100.336 C122.306,100.588001 122.216001,100.794999 122.036,100.957 C121.855999,101.119001 121.658001,101.2 121.442,101.2 C121.225999,101.2 121.028001,101.119001 120.848,100.957 C120.667999,100.794999 120.578,100.588001 120.578,100.336 C120.578,100.083999 120.667999,99.8770008 120.848,99.715 C121.028001,99.5529992 121.225999,99.472 121.442,99.472 C121.658001,99.472 121.855999,99.5529992 122.036,99.715 C122.216001,99.8770008 122.306,100.083999 122.306,100.336 L122.306,100.336 Z M122.036,112 L120.848,112 L120.848,103.576 L122.036,103.576 L122.036,112 Z M131.036,105.556 C130.831999,105.243998 130.547002,104.980001 130.181,104.764 C129.814998,104.547999 129.398002,104.44 128.93,104.44 C128.437998,104.428 127.997002,104.505999 127.607,104.674 C127.216998,104.842001 126.884001,105.075998 126.608,105.376 C126.331999,105.676001 126.122001,106.032998 125.978,106.447 C125.833999,106.861002 125.762,107.307998 125.762,107.788 C125.762,108.268002 125.833999,108.714998 125.978,109.129 C126.122001,109.543002 126.331999,109.899998 126.608,110.2 C126.884001,110.500001 127.216998,110.733999 127.607,110.902 C127.997002,111.070001 128.437998,111.148 128.93,111.136 C129.398002,111.136 129.814998,111.028001 130.181,110.812 C130.547002,110.595999 130.831999,110.332002 131.036,110.02 L132.008,110.758 C131.587998,111.250002 131.114003,111.612999 130.586,111.847 C130.057997,112.081001 129.506003,112.204 128.93,112.216 C128.245997,112.228 127.628003,112.123001 127.076,111.901 C126.523997,111.678999 126.053002,111.370002 125.663,110.974 C125.272998,110.577998 124.976001,110.107003 124.772,109.561 C124.567999,109.014997 124.466,108.424003 124.466,107.788 C124.466,107.151997 124.567999,106.561003 124.772,106.015 C124.976001,105.468997 125.272998,104.998002 125.663,104.602 C126.053002,104.205998 126.523997,103.897001 127.076,103.675 C127.628003,103.452999 128.245997,103.348 128.93,103.36 C129.506003,103.372 130.057997,103.494999 130.586,103.729 C131.114003,103.963001 131.587998,104.325998 132.008,104.818 L131.036,105.556 Z M135.032,112 L133.844,112 L133.844,98.392 L135.032,98.392 L135.032,112 Z M144.446,107.14 C144.446,106.335996 144.206002,105.685002 143.726,105.187 C143.245998,104.688998 142.574004,104.44 141.71,104.44 C141.325998,104.44 140.954002,104.514999 140.594,104.665 C140.233998,104.815001 139.919001,105.015999 139.649,105.268 C139.378999,105.520001 139.163001,105.807998 139.001,106.132 C138.838999,106.456002 138.758,106.791998 138.758,107.14 L144.446,107.14 Z M138.722,108.112 C138.758,108.532002 138.859999,108.927998 139.028,109.3 C139.196001,109.672002 139.417999,109.992999 139.694,110.263 C139.970001,110.533001 140.287998,110.745999 140.648,110.902 C141.008002,111.058001 141.397998,111.136 141.818,111.136 C142.454003,111.136 143.002998,110.989001 143.465,110.695 C143.927002,110.400999 144.277999,110.062002 144.518,109.678 L145.436,110.434 C144.931997,111.070003 144.377003,111.525999 143.771,111.802 C143.164997,112.078001 142.514003,112.216 141.818,112.216 C141.193997,112.216 140.615003,112.105001 140.081,111.883 C139.546997,111.660999 139.088002,111.352002 138.704,110.956 C138.319998,110.559998 138.017001,110.092003 137.795,109.552 C137.572999,109.011997 137.462,108.424003 137.462,107.788 C137.462,107.151997 137.569999,106.564003 137.786,106.024 C138.002001,105.483997 138.301998,105.016002 138.686,104.62 C139.070002,104.223998 139.519997,103.915001 140.036,103.693 C140.552003,103.470999 141.109997,103.36 141.71,103.36 C142.346003,103.36 142.915997,103.473999 143.42,103.702 C143.924003,103.930001 144.346998,104.232998 144.689,104.611 C145.031002,104.989002 145.291999,105.432997 145.472,105.943 C145.652001,106.453003 145.742,106.995997 145.742,107.572 L145.742,108.112 L138.722,108.112 Z M154.454,110.812 L156.974,110.812 C157.946005,110.812 158.788996,110.665001 159.503,110.371 C160.217004,110.076999 160.810998,109.687002 161.285,109.201 C161.759002,108.714998 162.109999,108.163003 162.338,107.545 C162.566001,106.926997 162.68,106.288003 162.68,105.628 C162.68,104.967997 162.566001,104.329003 162.338,103.711 C162.109999,103.092997 161.759002,102.541002 161.285,102.055 C160.810998,101.568998 160.217004,101.179001 159.503,100.885 C158.788996,100.590999 157.946005,100.444 156.974,100.444 L154.454,100.444 L154.454,110.812 Z M153.158,99.256 L157.388,99.256 C158.180004,99.256 158.974996,99.3879987 159.773,99.652 C160.571004,99.9160013 161.290997,100.314997 161.933,100.849 C162.575003,101.383003 163.093998,102.048996 163.49,102.847 C163.886002,103.645004 164.084,104.571995 164.084,105.628 C164.084,106.696005 163.886002,107.625996 163.49,108.418 C163.093998,109.210004 162.575003,109.872997 161.933,110.407 C161.290997,110.941003 160.571004,111.339999 159.773,111.604 C158.974996,111.868001 158.180004,112 157.388,112 L153.158,112 L153.158,99.256 Z M172.796,107.14 C172.796,106.335996 172.556002,105.685002 172.076,105.187 C171.595998,104.688998 170.924004,104.44 170.06,104.44 C169.675998,104.44 169.304002,104.514999 168.944,104.665 C168.583998,104.815001 168.269001,105.015999 167.999,105.268 C167.728999,105.520001 167.513001,105.807998 167.351,106.132 C167.188999,106.456002 167.108,106.791998 167.108,107.14 L172.796,107.14 Z M167.072,108.112 C167.108,108.532002 167.209999,108.927998 167.378,109.3 C167.546001,109.672002 167.767999,109.992999 168.044,110.263 C168.320001,110.533001 168.637998,110.745999 168.998,110.902 C169.358002,111.058001 169.747998,111.136 170.168,111.136 C170.804003,111.136 171.352998,110.989001 171.815,110.695 C172.277002,110.400999 172.627999,110.062002 172.868,109.678 L173.786,110.434 C173.281997,111.070003 172.727003,111.525999 172.121,111.802 C171.514997,112.078001 170.864003,112.216 170.168,112.216 C169.543997,112.216 168.965003,112.105001 168.431,111.883 C167.896997,111.660999 167.438002,111.352002 167.054,110.956 C166.669998,110.559998 166.367001,110.092003 166.145,109.552 C165.922999,109.011997 165.812,108.424003 165.812,107.788 C165.812,107.151997 165.919999,106.564003 166.136,106.024 C166.352001,105.483997 166.651998,105.016002 167.036,104.62 C167.420002,104.223998 167.869997,103.915001 168.386,103.693 C168.902003,103.470999 169.459997,103.36 170.06,103.36 C170.696003,103.36 171.265997,103.473999 171.77,103.702 C172.274003,103.930001 172.696998,104.232998 173.039,104.611 C173.381002,104.989002 173.641999,105.432997 173.822,105.943 C174.002001,106.453003 174.092,106.995997 174.092,107.572 L174.092,108.112 L167.072,108.112 Z M180.716,105.574 C180.535999,105.225998 180.296001,104.950001 179.996,104.746 C179.695998,104.541999 179.330002,104.44 178.898,104.44 C178.693999,104.44 178.487001,104.464 178.277,104.512 C178.066999,104.56 177.878001,104.634999 177.71,104.737 C177.541999,104.839001 177.407001,104.967999 177.305,105.124 C177.202999,105.280001 177.152,105.471999 177.152,105.7 C177.152,106.096002 177.289999,106.383999 177.566,106.564 C177.842001,106.744001 178.255997,106.899999 178.808,107.032 L180.014,107.32 C180.602003,107.452001 181.090998,107.718998 181.481,108.121 C181.871002,108.523002 182.066,109.023997 182.066,109.624 C182.066,110.080002 181.973001,110.472998 181.787,110.803 C181.600999,111.133002 181.355002,111.402999 181.049,111.613 C180.742998,111.823001 180.392002,111.976 179.996,112.072 C179.599998,112.168 179.198002,112.216 178.79,112.216 C178.141997,112.216 177.539003,112.093001 176.981,111.847 C176.422997,111.600999 175.946002,111.178003 175.55,110.578 L176.576,109.876 C176.816001,110.260002 177.118998,110.565999 177.485,110.794 C177.851002,111.022001 178.285997,111.136 178.79,111.136 C179.030001,111.136 179.269999,111.109 179.51,111.055 C179.750001,111.001 179.962999,110.917001 180.149,110.803 C180.335001,110.688999 180.484999,110.542001 180.599,110.362 C180.713001,110.181999 180.77,109.972001 180.77,109.732 C180.77,109.311998 180.614002,109.009001 180.302,108.823 C179.989998,108.636999 179.612002,108.490001 179.168,108.382 L178.016,108.112 C177.871999,108.076 177.677001,108.016 177.431,107.932 C177.184999,107.848 176.945001,107.722001 176.711,107.554 C176.476999,107.385999 176.276001,107.167001 176.108,106.897 C175.939999,106.626999 175.856,106.294002 175.856,105.898 C175.856,105.465998 175.942999,105.088002 176.117,104.764 C176.291001,104.439998 176.524999,104.176001 176.819,103.972 C177.113001,103.767999 177.445998,103.615001 177.818,103.513 C178.190002,103.410999 178.573998,103.36 178.97,103.36 C179.558003,103.36 180.103997,103.473999 180.608,103.702 C181.112003,103.930001 181.501999,104.319997 181.778,104.872 L180.716,105.574 Z M185.648,100.336 C185.648,100.588001 185.558001,100.794999 185.378,100.957 C185.197999,101.119001 185.000001,101.2 184.784,101.2 C184.567999,101.2 184.370001,101.119001 184.19,100.957 C184.009999,100.794999 183.92,100.588001 183.92,100.336 C183.92,100.083999 184.009999,99.8770008 184.19,99.715 C184.370001,99.5529992 184.567999,99.472 184.784,99.472 C185.000001,99.472 185.197999,99.5529992 185.378,99.715 C185.558001,99.8770008 185.648,100.083999 185.648,100.336 L185.648,100.336 Z M185.378,112 L184.19,112 L184.19,103.576 L185.378,103.576 L185.378,112 Z M189.104,107.68 C189.104,108.124002 189.184999,108.540998 189.347,108.931 C189.509001,109.321002 189.730999,109.662999 190.013,109.957 C190.295001,110.251001 190.624998,110.484999 191.003,110.659 C191.381002,110.833001 191.791998,110.92 192.236,110.92 C192.668002,110.92 193.078998,110.842001 193.469,110.686 C193.859002,110.529999 194.203998,110.311001 194.504,110.029 C194.804001,109.746999 195.034999,109.408002 195.197,109.012 C195.359001,108.615998 195.434,108.172002 195.422,107.68 C195.422,107.235998 195.350001,106.819002 195.206,106.429 C195.061999,106.038998 194.852001,105.697001 194.576,105.403 C194.299999,105.108999 193.964002,104.875001 193.568,104.701 C193.171998,104.526999 192.728002,104.44 192.236,104.44 C191.791998,104.44 191.381002,104.526999 191.003,104.701 C190.624998,104.875001 190.295001,105.108999 190.013,105.403 C189.730999,105.697001 189.509001,106.038998 189.347,106.429 C189.184999,106.819002 189.104,107.235998 189.104,107.68 L189.104,107.68 Z M188.888,113.692 C189.236002,114.160002 189.688997,114.534999 190.247,114.817 C190.805003,115.099001 191.425997,115.24 192.11,115.24 C192.710003,115.24 193.219998,115.153001 193.64,114.979 C194.060002,114.804999 194.398999,114.568002 194.657,114.268 C194.915001,113.967998 195.100999,113.617002 195.215,113.215 C195.329001,112.812998 195.386,112.384002 195.386,111.928 L195.386,110.416 L195.35,110.416 C194.965998,110.992003 194.498003,111.399999 193.946,111.64 C193.393997,111.880001 192.812003,112 192.2,112 C191.587997,112 191.015003,111.892001 190.481,111.676 C189.946997,111.459999 189.482002,111.163002 189.086,110.785 C188.689998,110.406998 188.378001,109.954003 188.15,109.426 C187.921999,108.897997 187.808,108.328003 187.808,107.716 C187.808,107.103997 187.915999,106.534003 188.132,106.006 C188.348001,105.477997 188.644998,105.016002 189.023,104.62 C189.401002,104.223998 189.850997,103.915001 190.373,103.693 C190.895003,103.470999 191.467997,103.36 192.092,103.36 C192.344001,103.36 192.610999,103.384 192.893,103.432 C193.175001,103.48 193.456999,103.563999 193.739,103.684 C194.021001,103.804001 194.299999,103.968999 194.576,104.179 C194.852001,104.389001 195.109999,104.655998 195.35,104.98 L195.386,104.98 L195.386,103.576 L196.574,103.576 L196.574,111.928 C196.574,112.384002 196.517001,112.869997 196.403,113.386 C196.288999,113.902003 196.067002,114.375998 195.737,114.808 C195.406998,115.240002 194.948003,115.599999 194.36,115.888 C193.771997,116.176001 193.004005,116.32 192.056,116.32 C191.215996,116.32 190.466003,116.182001 189.806,115.906 C189.145997,115.629999 188.546003,115.204003 188.006,114.628 L188.888,113.692 Z M200.372,103.576 C200.396,103.804001 200.411,104.028999 200.417,104.251 C200.423,104.473001 200.426,104.697999 200.426,104.926 L200.462,104.926 C200.594001,104.697999 200.761999,104.488001 200.966,104.296 C201.170001,104.103999 201.397999,103.939001 201.65,103.801 C201.902001,103.662999 202.168999,103.555 202.451,103.477 C202.733001,103.399 203.011999,103.36 203.288,103.36 C204.368005,103.36 205.165997,103.644997 205.682,104.215 C206.198003,104.785003 206.456,105.597995 206.456,106.654 L206.456,112 L205.268,112 L205.268,107.338 C205.268,106.401995 205.106002,105.685002 204.782,105.187 C204.457998,104.688998 203.858004,104.44 202.982,104.44 C202.922,104.44 202.754001,104.464 202.478,104.512 C202.201999,104.56 201.911002,104.691999 201.605,104.908 C201.298998,105.124001 201.026001,105.447998 200.786,105.88 C200.545999,106.312002 200.426,106.911996 200.426,107.68 L200.426,112 L199.238,112 L199.238,105.43 C199.238,105.201999 199.229,104.914002 199.211,104.566 C199.193,104.217998 199.172,103.888002 199.148,103.576 L200.372,103.576 Z" id="Lucid-Particle-Desig" sketch:type="MSShapeGroup"></path>
        </g>
    </g>
</svg>