<?xml version="1.0" encoding="utf-8"?>
<!-- Generator: Adobe Illustrator 18.1.1, SVG Export Plug-In . SVG Version: 6.00 Build 0)  -->
<svg version="1.1" id="Layer_1" xmlns:sketch="http://www.bohemiancoding.com/sketch/ns"
	 xmlns="http://www.w3.org/2000/svg" xmlns:xlink="http://www.w3.org/1999/xlink" x="0px" y="0px" width="210px" height="20px"
	 viewBox="94 2 210 20" enable-background="new 94 2 210 20" xml:space="preserve">
<path id="Fill-1" sketch:type="MSShapeGroup" fill="#A9DDF3" d="M102.7,14.4c-1.1,0-2.2-0.5-3-1.3c-0.8-0.8-1.2-1.9-1.2-2.9l0,0
	c0-0.6-0.2-1.1-0.7-1.6c-0.9-0.9-2.3-0.9-3.2,0c-0.9,0.9-0.9,2.3,0,3.2c0.4,0.4,1,0.7,1.6,0.7l0,0c1.1,0,2.1,0.3,2.9,1.2
	c0.8,0.8,1.2,1.9,1.3,3c0,0.6,0.2,1.2,0.7,1.7c0.9,0.9,2.3,0.9,3.2,0c0.9-0.9,0.9-2.3,0-3.2C103.9,14.7,103.3,14.4,102.7,14.4"/>
<circle fill="#A9DDF3" cx="96" cy="4" r="2"/>
<circle fill="#A9DDF3" cx="96" cy="17" r="2"/>
<circle fill="#A9DDF3" cx="109" cy="17" r="2"/>
</svg>
