<?xml version="1.0" encoding="UTF-8" standalone="no"?>
<svg width="210px" height="20px" viewBox="0 0 210 20" version="1.1" xmlns="http://www.w3.org/2000/svg" xmlns:xlink="http://www.w3.org/1999/xlink" xmlns:sketch="http://www.bohemiancoding.com/sketch/ns">
    <!-- Generator: Sketch 3.3.3 (12081) - http://www.bohemiancoding.com/sketch -->
    <title>Lucid Particle Desig + Imported Layers</title>
    <desc>Created with Sketch.</desc>
    <defs></defs>
    <g id="Page-1" stroke="none" stroke-width="1" fill="none" fill-rule="evenodd" sketch:type="MSPage">
        <g id="B00-Copy-6" sketch:type="MSArtboardGroup" transform="translate(-19.000000, -29.000000)">
            <g id="Lucid-Particle-Desig-+-Imported-Layers" sketch:type="MSLayerGroup" transform="translate(19.000000, 29.000000)">
                <path d="M8.72876164,12.4434339 C7.60200558,12.4139461 6.53070978,11.9821605 5.71495243,11.1670337 C4.90621536,10.3589277 4.56011521,9.3015797 4.55590304,8.24072124 L4.55520101,8.24212542 C4.54537261,7.67132599 4.3249356,7.10263284 3.88897577,6.66663475 C2.99950541,5.77778842 1.55683643,5.77778842 0.667366061,6.66663475 C-0.222104305,7.55618318 -0.222806333,8.99897878 0.667366061,9.8892293 C1.10332588,10.3245253 1.6712671,10.5463858 2.24271847,10.5548109 L2.24061238,10.5562151 C3.30769601,10.555513 4.34599646,10.8946226 5.16034975,11.7083453 C5.96347059,12.5108345 6.39311215,13.5808202 6.4457643,14.6802936 C6.43523387,15.2763683 6.65567089,15.8773576 7.11128751,16.3323121 C8.00075788,17.2225626 9.44342686,17.2225626 10.3328972,16.3323121 C11.2223676,15.4427637 11.2223676,14.0013723 10.3328972,13.1111217 C9.88921509,12.6681028 9.30933938,12.4455401 8.72876164,12.4434339" id="Fill-1" fill="#A9DDF3" sketch:type="MSShapeGroup"></path>
                <path d="M0.585878834,13.585738 C-0.195601069,14.3667219 -0.19498476,15.6328158 0.585878834,16.4137997 C1.36674243,17.1954001 2.63325757,17.1954001 3.41412117,16.4137997 C4.19560107,15.6328158 4.19498476,14.3667219 3.41412117,13.585738 C2.63325757,12.804754 1.36674243,12.804754 0.585878834,13.585738" id="Fill-2" fill="#A9DDF3" sketch:type="MSShapeGroup"></path>
                <path d="M3.41431846,3.4138243 C4.19522718,2.63297574 4.19522718,1.36648498 3.41431846,0.58563642 C2.63340974,-0.19521214 1.36682141,-0.19521214 0.585912691,0.58563642 C-0.194996028,1.36648498 -0.195612372,2.63297574 0.585912691,3.41444059 C1.36682141,4.19528915 2.63340974,4.19528915 3.41431846,3.4138243" id="Fill-3" fill="#A9DDF3" sketch:type="MSShapeGroup"></path>
                <path d="M16.4138449,13.585738 C15.6329211,12.804754 14.3675411,12.804754 13.5866174,13.585738 C12.8044609,14.3667219 12.8044609,15.6328158 13.5866174,16.4137997 C14.3675411,17.1954001 15.6335375,17.1954001 16.4138449,16.4137997 C17.195385,15.6328158 17.195385,14.3673383 16.4138449,13.585738" id="Fill-4" fill="#A9DDF3" sketch:type="MSShapeGroup"></path>
                <path d="M24.482,1.548 L27.446,1.548 L27.446,12.264 L32.937,12.264 L32.937,15 L24.482,15 L24.482,1.548 Z M43.5338181,15 L40.7978181,15 L40.7978181,13.746 L40.7598181,13.746 C40.6584843,13.9233342 40.5286523,14.1006658 40.3703181,14.278 C40.211984,14.4553342 40.0188193,14.613666 39.7908181,14.753 C39.562817,14.892334 39.3031529,15.0063329 39.0118181,15.095 C38.7204833,15.1836671 38.4038198,15.228 38.0618181,15.228 C37.3398145,15.228 36.753987,15.1171678 36.3043181,14.8955 C35.8546492,14.6738322 35.5063194,14.3666686 35.2593181,13.974 C35.0123169,13.5813314 34.8476519,13.1190027 34.7653181,12.587 C34.6829844,12.0549973 34.6418181,11.4786698 34.6418181,10.858 L34.6418181,5.766 L37.4918181,5.766 L37.4918181,10.288 C37.4918181,10.5540013 37.501318,10.8294986 37.5203181,11.1145 C37.5393182,11.3995014 37.5963177,11.6623321 37.6913181,11.903 C37.7863186,12.1436679 37.9319838,12.3399992 38.1283181,12.492 C38.3246524,12.6440008 38.606483,12.72 38.9738181,12.72 C39.3411533,12.72 39.638817,12.6535007 39.8668181,12.5205 C40.0948193,12.3874993 40.2689842,12.2101678 40.3893181,11.9885 C40.5096521,11.7668322 40.5888179,11.5166681 40.6268181,11.238 C40.6648183,10.9593319 40.6838181,10.6680015 40.6838181,10.364 L40.6838181,5.766 L43.5338181,5.766 L43.5338181,15 Z M52.2306363,8.749 C52.0913022,8.54633232 51.8949709,8.37850066 51.6416363,8.2455 C51.3883017,8.11249933 51.115971,8.046 50.8246363,8.046 C50.1026326,8.046 49.5421383,8.26133118 49.1431363,8.692 C48.7441343,9.12266882 48.5446363,9.68632985 48.5446363,10.383 C48.5446363,11.0796701 48.7441343,11.6433312 49.1431363,12.074 C49.5421383,12.5046688 50.1026326,12.72 50.8246363,12.72 C51.1413045,12.72 51.4136351,12.650334 51.6416363,12.511 C51.8696374,12.371666 52.0659688,12.2070009 52.2306363,12.017 L54.1116363,13.993 C53.6683007,14.4490023 53.1458059,14.7688324 52.5441363,14.9525 C51.9424666,15.1361676 51.3693056,15.228 50.8246363,15.228 C50.1152994,15.228 49.4471394,15.1140011 48.8201363,14.886 C48.1931331,14.6579989 47.6484719,14.3318355 47.1861363,13.9075 C46.7238006,13.4831645 46.3596376,12.9733363 46.0936363,12.378 C45.8276349,11.7826637 45.6946363,11.1176703 45.6946363,10.383 C45.6946363,9.64832966 45.8276349,8.98333631 46.0936363,8.388 C46.3596376,7.79266369 46.7238006,7.28283545 47.1861363,6.8585 C47.6484719,6.43416454 48.1931331,6.10800114 48.8201363,5.88 C49.4471394,5.65199886 50.1152994,5.538 50.8246363,5.538 C51.3693056,5.538 51.9424666,5.62983241 52.5441363,5.8135 C53.1458059,5.99716758 53.6683007,6.31699772 54.1116363,6.773 L52.2306363,8.749 Z M55.6074544,5.766 L58.4574544,5.766 L58.4574544,15 L55.6074544,15 L55.6074544,5.766 Z M55.3794544,2.859 C55.3794544,2.40299772 55.5409528,2.01350161 55.8639544,1.6905 C56.186956,1.36749838 56.5764521,1.206 57.0324544,1.206 C57.4884567,1.206 57.8779528,1.36749838 58.2009544,1.6905 C58.523956,2.01350161 58.6854544,2.40299772 58.6854544,2.859 C58.6854544,3.31500228 58.523956,3.70449838 58.2009544,4.0275 C57.8779528,4.35050161 57.4884567,4.512 57.0324544,4.512 C56.5764521,4.512 56.186956,4.35050161 55.8639544,4.0275 C55.5409528,3.70449838 55.3794544,3.31500228 55.3794544,2.859 L55.3794544,2.859 Z M70.6312725,15 L68.0092725,15 L68.0092725,13.784 L67.9712725,13.784 C67.8572719,13.9486675 67.7084401,14.1164991 67.5247725,14.2875 C67.3411049,14.4585009 67.1257737,14.613666 66.8787725,14.753 C66.6317713,14.892334 66.3594407,15.0063329 66.0617725,15.095 C65.7641044,15.1836671 65.4569408,15.228 65.1402725,15.228 C64.4562691,15.228 63.8356086,15.1108345 63.2782725,14.8765 C62.7209364,14.6421655 62.2427745,14.3128355 61.8437725,13.8885 C61.4447705,13.4641645 61.1376069,12.9606696 60.9222725,12.378 C60.7069381,11.7953304 60.5992725,11.1556701 60.5992725,10.459 C60.5992725,9.81299677 60.6974382,9.19550294 60.8937725,8.6065 C61.0901068,8.01749705 61.3687707,7.49500228 61.7297725,7.039 C62.0907743,6.58299772 62.5309366,6.21883469 63.0502725,5.9465 C63.5696084,5.6741653 64.1586026,5.538 64.8172725,5.538 C65.4126088,5.538 65.9667699,5.62983241 66.4797725,5.8135 C66.9927751,5.99716758 67.4139375,6.31066445 67.7432725,6.754 L67.7812725,6.754 L67.7812725,0.636 L70.6312725,0.636 L70.6312725,15 Z M68.0092725,10.383 C68.0092725,9.68632985 67.8097745,9.12266882 67.4107725,8.692 C67.0117705,8.26133118 66.4512761,8.046 65.7292725,8.046 C65.0072689,8.046 64.4467745,8.26133118 64.0477725,8.692 C63.6487705,9.12266882 63.4492725,9.68632985 63.4492725,10.383 C63.4492725,11.0796701 63.6487705,11.6433312 64.0477725,12.074 C64.4467745,12.5046688 65.0072689,12.72 65.7292725,12.72 C66.4512761,12.72 67.0117705,12.5046688 67.4107725,12.074 C67.8097745,11.6433312 68.0092725,11.0796701 68.0092725,10.383 L68.0092725,10.383 Z M81.2419088,7.495 L83.4459088,7.495 C84.0539118,7.495 84.5700733,7.4316673 84.9944088,7.305 C85.4187442,7.1783327 85.7575742,7.01050104 86.0109088,6.8015 C86.2642434,6.59249895 86.4479082,6.34550142 86.5619088,6.0605 C86.6759093,5.77549857 86.7329088,5.46833498 86.7329088,5.139 C86.7329088,4.82233175 86.6759093,4.52150142 86.5619088,4.2365 C86.4479082,3.95149857 86.2642434,3.70133441 86.0109088,3.486 C85.7575742,3.27066559 85.4187442,3.10283393 84.9944088,2.9825 C84.5700733,2.86216606 84.0539118,2.802 83.4459088,2.802 L81.2419088,2.802 L81.2419088,7.495 Z M79.8739088,1.548 L83.7879088,1.548 C85.1559156,1.548 86.2357381,1.84566369 87.0274088,2.441 C87.8190794,3.03633631 88.2149088,3.93566065 88.2149088,5.139 C88.2149088,6.34233935 87.8190794,7.24483032 87.0274088,7.8465 C86.2357381,8.44816967 85.1559156,8.749 83.7879088,8.749 L81.2419088,8.749 L81.2419088,15 L79.8739088,15 L79.8739088,1.548 Z M95.8097269,10.573 C95.4930586,10.573 95.0972293,10.5888332 94.6222269,10.6205 C94.1472245,10.6521668 93.6912291,10.7281661 93.2542269,10.8485 C92.8172247,10.9688339 92.4435618,11.1556654 92.1332269,11.409 C91.822892,11.6623346 91.6677269,12.0106644 91.6677269,12.454 C91.6677269,12.7453348 91.727893,12.995499 91.8482269,13.2045 C91.9685608,13.413501 92.1300592,13.5844993 92.3327269,13.7175 C92.5353946,13.8505007 92.7602257,13.9454997 93.0072269,14.0025 C93.2542281,14.0595003 93.5043923,14.088 93.7577269,14.088 C94.2137292,14.088 94.6095585,14.0120008 94.9452269,13.86 C95.2808952,13.7079992 95.5627258,13.502168 95.7907269,13.2425 C96.018728,12.982832 96.1865597,12.6788351 96.2942269,12.3305 C96.4018941,11.9821649 96.4557269,11.6116686 96.4557269,11.219 L96.4557269,10.573 L95.8097269,10.573 Z M96.4557269,9.547 L96.4557269,9.319 C96.4557269,7.78632567 95.6957345,7.02 94.1757269,7.02 C93.137055,7.02 92.2313974,7.36832985 91.4587269,8.065 L90.6987269,7.172 C91.5347311,6.31066236 92.7887185,5.88 94.4607269,5.88 C94.8913957,5.88 95.3062249,5.9433327 95.7052269,6.07 C96.1042289,6.1966673 96.4493921,6.38983203 96.7407269,6.6495 C97.0320617,6.90916796 97.2663927,7.23533137 97.4437269,7.628 C97.6210611,8.02066863 97.7097269,8.48933061 97.7097269,9.034 L97.7097269,13.005 C97.7097269,13.3470017 97.7255601,13.7048315 97.7572269,14.0785 C97.7888937,14.4521685 97.8237267,14.7593321 97.8617269,15 L96.6457269,15 C96.6077267,14.7846656 96.579227,14.5503346 96.5602269,14.297 C96.5412268,14.0436654 96.5317269,13.7966679 96.5317269,13.556 L96.4937269,13.556 C96.1263917,14.1513363 95.6925627,14.578832 95.1922269,14.8385 C94.6918911,15.098168 94.0807305,15.228 93.3587269,15.228 C92.9660583,15.228 92.5860621,15.1741672 92.2187269,15.0665 C91.8513917,14.9588328 91.5252283,14.7941678 91.2402269,14.5725 C90.9552255,14.3508322 90.7272277,14.0785016 90.5562269,13.7555 C90.385226,13.4324984 90.2997269,13.0556688 90.2997269,12.625 C90.2997269,11.9029964 90.4865584,11.3361687 90.8602269,10.9245 C91.2338954,10.5128313 91.7025574,10.2056677 92.2662269,10.003 C92.8298964,9.80033232 93.431557,9.67366692 94.0712269,9.623 C94.7108968,9.57233308 95.2967242,9.547 95.8287269,9.547 L96.4557269,9.547 Z M101.181545,8.882 C101.181545,8.48933137 101.172045,8.09033536 101.153045,7.685 C101.134045,7.27966464 101.118212,6.75400323 101.105545,6.108 L102.340545,6.108 L102.340545,7.761 L102.378545,7.761 C102.467212,7.52033213 102.593878,7.28916777 102.758545,7.0675 C102.923213,6.84583222 103.122711,6.64633422 103.357045,6.469 C103.59138,6.29166578 103.86371,6.1491672 104.174045,6.0415 C104.48438,5.93383279 104.835876,5.88 105.228545,5.88 C105.583213,5.88 105.893544,5.91799962 106.159545,5.994 L105.912545,7.229 C105.747878,7.16566635 105.507213,7.134 105.190545,7.134 C104.709209,7.134 104.297547,7.22583241 103.955545,7.4095 C103.613543,7.59316758 103.328546,7.82749857 103.100545,8.1125 C102.872544,8.39750142 102.704712,8.70466502 102.597045,9.034 C102.489378,9.36333498 102.435545,9.67999848 102.435545,9.984 L102.435545,15 L101.181545,15 L101.181545,8.882 Z M112.386363,7.248 L109.821363,7.248 L109.821363,12.492 C109.821363,12.821335 109.853029,13.090499 109.916363,13.2995 C109.979697,13.508501 110.068363,13.6699994 110.182363,13.784 C110.296364,13.8980006 110.432529,13.9771664 110.590863,14.0215 C110.749197,14.0658336 110.923362,14.088 111.113363,14.088 C111.328698,14.088 111.550362,14.0563336 111.778363,13.993 C112.006364,13.9296663 112.215362,13.8473338 112.405363,13.746 L112.462363,14.905 C111.993694,15.1203344 111.430033,15.228 110.771363,15.228 C110.530695,15.228 110.280531,15.1963336 110.020863,15.133 C109.761195,15.0696663 109.523698,14.9493342 109.308363,14.772 C109.093029,14.5946658 108.915697,14.3540015 108.776363,14.05 C108.637029,13.7459985 108.567363,13.3470025 108.567363,12.853 L108.567363,7.248 L106.686363,7.248 L106.686363,6.108 L108.567363,6.108 L108.567363,3.6 L109.821363,3.6 L109.821363,6.108 L112.386363,6.108 L112.386363,7.248 Z M116.352181,2.688 C116.352181,2.95400133 116.257182,3.17249914 116.067181,3.3435 C115.87718,3.51450085 115.668182,3.6 115.440181,3.6 C115.21218,3.6 115.003182,3.51450085 114.813181,3.3435 C114.62318,3.17249914 114.528181,2.95400133 114.528181,2.688 C114.528181,2.42199867 114.62318,2.20350085 114.813181,2.0325 C115.003182,1.86149914 115.21218,1.776 115.440181,1.776 C115.668182,1.776 115.87718,1.86149914 116.067181,2.0325 C116.257182,2.20350085 116.352181,2.42199867 116.352181,2.688 L116.352181,2.688 Z M116.067181,15 L114.813181,15 L114.813181,6.108 L116.067181,6.108 L116.067181,15 Z M125.998999,8.198 C125.783665,7.86866502 125.482835,7.59000114 125.096499,7.362 C124.710164,7.13399886 124.270002,7.02 123.775999,7.02 C123.256663,7.00733327 122.791168,7.08966578 122.379499,7.267 C121.967831,7.44433422 121.616334,7.69133175 121.324999,8.008 C121.033665,8.32466825 120.812,8.70149781 120.659999,9.1385 C120.507999,9.57550218 120.431999,10.0473308 120.431999,10.554 C120.431999,11.0606692 120.507999,11.5324978 120.659999,11.9695 C120.812,12.4065022 121.033665,12.7833317 121.324999,13.1 C121.616334,13.4166682 121.967831,13.6636658 122.379499,13.841 C122.791168,14.0183342 123.256663,14.1006667 123.775999,14.088 C124.270002,14.088 124.710164,13.9740011 125.096499,13.746 C125.482835,13.5179989 125.783665,13.239335 125.998999,12.91 L127.024999,13.689 C126.581664,14.2083359 126.081336,14.5914988 125.523999,14.8385 C124.966663,15.0855012 124.384002,15.2153333 123.775999,15.228 C123.053996,15.2406667 122.401669,15.1298345 121.818999,14.8955 C121.23633,14.6611655 120.739168,14.3350021 120.327499,13.917 C119.915831,13.4989979 119.602334,13.0018362 119.386999,12.4255 C119.171665,11.8491638 119.063999,11.2253367 119.063999,10.554 C119.063999,9.88266331 119.171665,9.25883621 119.386999,8.6825 C119.602334,8.10616378 119.915831,7.60900209 120.327499,7.191 C120.739168,6.77299791 121.23633,6.4468345 121.818999,6.2125 C122.401669,5.97816549 123.053996,5.86733327 123.775999,5.88 C124.384002,5.89266673 124.966663,6.02249876 125.523999,6.2695 C126.081336,6.51650123 126.581664,6.89966407 127.024999,7.419 L125.998999,8.198 Z M130.648818,15 L129.394818,15 L129.394818,0.636 L130.648818,0.636 L130.648818,15 Z M141.017636,9.87 C141.017636,9.02132909 140.764305,8.33416929 140.257636,7.8085 C139.750966,7.2828307 139.04164,7.02 138.129636,7.02 C137.7243,7.02 137.331638,7.09916587 136.951636,7.2575 C136.571634,7.41583412 136.239137,7.62799867 135.954136,7.894 C135.669134,8.16000133 135.441137,8.46399829 135.270136,8.806 C135.099135,9.14800171 135.013636,9.50266483 135.013636,9.87 L141.017636,9.87 Z M134.975636,10.896 C135.013636,11.3393355 135.121301,11.7573314 135.298636,12.15 C135.47597,12.5426686 135.710301,12.8814986 136.001636,13.1665 C136.29297,13.4515014 136.628634,13.6763325 137.008636,13.841 C137.388638,14.0056675 137.8003,14.088 138.243636,14.088 C138.914972,14.088 139.494467,13.9328349 139.982136,13.6225 C140.469805,13.3121651 140.840301,12.9543354 141.093636,12.549 L142.062636,13.347 C141.530633,14.0183367 140.944806,14.4996652 140.305136,14.791 C139.665466,15.0823348 138.978306,15.228 138.243636,15.228 C137.584966,15.228 136.973805,15.1108345 136.410136,14.8765 C135.846466,14.6421655 135.361971,14.3160021 134.956636,13.898 C134.5513,13.4799979 134.23147,12.9860028 133.997136,12.416 C133.762801,11.8459971 133.645636,11.2253367 133.645636,10.554 C133.645636,9.88266331 133.759635,9.26200285 133.987636,8.692 C134.215637,8.12199715 134.5323,7.62800209 134.937636,7.21 C135.342971,6.79199791 135.817966,6.4658345 136.362636,6.2315 C136.907305,5.99716549 137.496299,5.88 138.129636,5.88 C138.800972,5.88 139.402633,6.00033213 139.934636,6.241 C140.466638,6.48166787 140.913134,6.801498 141.274136,7.2005 C141.635137,7.59950199 141.910635,8.06816397 142.100636,8.6065 C142.290637,9.14483602 142.385636,9.71799696 142.385636,10.326 L142.385636,10.896 L134.975636,10.896 Z M152.445272,13.746 L155.105272,13.746 C156.131277,13.746 157.021101,13.5908349 157.774772,13.2805 C158.528442,12.9701651 159.155436,12.5585026 159.655772,12.0455 C160.156108,11.5324974 160.526604,10.9498366 160.767272,10.2975 C161.00794,9.6451634 161.128272,8.97067015 161.128272,8.274 C161.128272,7.57732985 161.00794,6.90283659 160.767272,6.2505 C160.526604,5.5981634 160.156108,5.01550256 159.655772,4.5025 C159.155436,3.98949743 158.528442,3.57783488 157.774772,3.2675 C157.021101,2.95716511 156.131277,2.802 155.105272,2.802 L152.445272,2.802 L152.445272,13.746 Z M151.077272,1.548 L155.542272,1.548 C156.378276,1.548 157.217434,1.68733194 158.059772,1.966 C158.902109,2.24466806 159.662102,2.66583051 160.339772,3.2295 C161.017442,3.79316948 161.56527,4.49616245 161.983272,5.3385 C162.401274,6.18083754 162.610272,7.15932776 162.610272,8.274 C162.610272,9.40133897 162.401274,10.3829958 161.983272,11.219 C161.56527,12.0550042 161.017442,12.7548305 160.339772,13.3185 C159.662102,13.8821695 158.902109,14.3033319 158.059772,14.582 C157.217434,14.8606681 156.378276,15 155.542272,15 L151.077272,15 L151.077272,1.548 Z M172.23809,9.87 C172.23809,9.02132909 171.984759,8.33416929 171.47809,7.8085 C170.971421,7.2828307 170.262095,7.02 169.35009,7.02 C168.944755,7.02 168.552092,7.09916587 168.17209,7.2575 C167.792088,7.41583412 167.459591,7.62799867 167.17459,7.894 C166.889589,8.16000133 166.661591,8.46399829 166.49059,8.806 C166.319589,9.14800171 166.23409,9.50266483 166.23409,9.87 L172.23809,9.87 Z M166.19609,10.896 C166.23409,11.3393355 166.341756,11.7573314 166.51909,12.15 C166.696424,12.5426686 166.930755,12.8814986 167.22209,13.1665 C167.513425,13.4515014 167.849088,13.6763325 168.22909,13.841 C168.609092,14.0056675 169.020754,14.088 169.46409,14.088 C170.135427,14.088 170.714921,13.9328349 171.20259,13.6225 C171.690259,13.3121651 172.060755,12.9543354 172.31409,12.549 L173.28309,13.347 C172.751087,14.0183367 172.16526,14.4996652 171.52559,14.791 C170.88592,15.0823348 170.19876,15.228 169.46409,15.228 C168.80542,15.228 168.19426,15.1108345 167.63059,14.8765 C167.066921,14.6421655 166.582425,14.3160021 166.17709,13.898 C165.771755,13.4799979 165.451925,12.9860028 165.21759,12.416 C164.983256,11.8459971 164.86609,11.2253367 164.86609,10.554 C164.86609,9.88266331 164.980089,9.26200285 165.20809,8.692 C165.436091,8.12199715 165.752755,7.62800209 166.15809,7.21 C166.563425,6.79199791 167.038421,6.4658345 167.58309,6.2315 C168.127759,5.99716549 168.716754,5.88 169.35009,5.88 C170.021427,5.88 170.623087,6.00033213 171.15509,6.241 C171.687093,6.48166787 172.133588,6.801498 172.49459,7.2005 C172.855592,7.59950199 173.131089,8.06816397 173.32109,8.6065 C173.511091,9.14483602 173.60609,9.71799696 173.60609,10.326 L173.60609,10.896 L166.19609,10.896 Z M181.029908,8.217 C180.839907,7.84966483 180.586576,7.55833441 180.269908,7.343 C179.95324,7.12766559 179.56691,7.02 179.110908,7.02 C178.895574,7.02 178.677076,7.04533308 178.455408,7.096 C178.23374,7.14666692 178.034242,7.22583279 177.856908,7.3335 C177.679574,7.4411672 177.537075,7.57733251 177.429408,7.742 C177.321741,7.90666749 177.267908,8.10933213 177.267908,8.35 C177.267908,8.76800209 177.413573,9.07199905 177.704908,9.262 C177.996243,9.45200095 178.433239,9.61666597 179.015908,9.756 L180.288908,10.06 C180.909578,10.199334 181.425739,10.4811645 181.837408,10.9055 C182.249077,11.3298355 182.454908,11.8586635 182.454908,12.492 C182.454908,12.9733357 182.356742,13.3881649 182.160408,13.7365 C181.964074,14.0848351 181.70441,14.3698322 181.381408,14.5915 C181.058407,14.8131678 180.68791,14.9746662 180.269908,15.076 C179.851906,15.1773338 179.427577,15.228 178.996908,15.228 C178.312905,15.228 177.676411,15.098168 177.087408,14.8385 C176.498405,14.578832 175.99491,14.1323365 175.576908,13.499 L176.659908,12.758 C176.913243,13.1633354 177.233073,13.4863321 177.619408,13.727 C178.005743,13.9676679 178.464906,14.088 178.996908,14.088 C179.250243,14.088 179.503574,14.0595003 179.756908,14.0025 C180.010243,13.9454997 180.235074,13.8568339 180.431408,13.7365 C180.627742,13.6161661 180.786074,13.4610009 180.906408,13.271 C181.026742,13.080999 181.086908,12.8593346 181.086908,12.606 C181.086908,12.1626644 180.922243,11.8428343 180.592908,11.6465 C180.263573,11.4501657 179.864577,11.2950006 179.395908,11.181 L178.179908,10.896 C178.027907,10.8579998 177.822076,10.7946671 177.562408,10.706 C177.30274,10.6173329 177.049409,10.4843342 176.802408,10.307 C176.555407,10.1296658 176.343242,9.89850142 176.165908,9.6135 C175.988574,9.32849857 175.899908,8.97700209 175.899908,8.559 C175.899908,8.10299772 175.991741,7.70400171 176.175408,7.362 C176.359076,7.01999829 176.606073,6.74133441 176.916408,6.526 C177.226743,6.31066559 177.57824,6.1491672 177.970908,6.0415 C178.363577,5.93383279 178.768906,5.88 179.186908,5.88 C179.807578,5.88 180.383906,6.00033213 180.915908,6.241 C181.447911,6.48166787 181.859573,6.89333042 182.150908,7.476 L181.029908,8.217 Z M186.667726,2.688 C186.667726,2.95400133 186.572727,3.17249914 186.382726,3.3435 C186.192725,3.51450085 185.983727,3.6 185.755726,3.6 C185.527725,3.6 185.318727,3.51450085 185.128726,3.3435 C184.938725,3.17249914 184.843726,2.95400133 184.843726,2.688 C184.843726,2.42199867 184.938725,2.20350085 185.128726,2.0325 C185.318727,1.86149914 185.527725,1.776 185.755726,1.776 C185.983727,1.776 186.192725,1.86149914 186.382726,2.0325 C186.572727,2.20350085 186.667726,2.42199867 186.667726,2.688 L186.667726,2.688 Z M186.382726,15 L185.128726,15 L185.128726,6.108 L186.382726,6.108 L186.382726,15 Z M190.747544,10.44 C190.747544,10.908669 190.833044,11.3488313 191.004044,11.7605 C191.175045,12.1721687 191.409376,12.5331651 191.707044,12.8435 C192.004713,13.1538349 192.353042,13.4008324 192.752044,13.5845 C193.151046,13.7681676 193.584875,13.86 194.053544,13.86 C194.509547,13.86 194.943376,13.7776675 195.355044,13.613 C195.766713,13.4483325 196.130876,13.2171682 196.447544,12.9195 C196.764213,12.6218318 197.008044,12.2640021 197.179044,11.846 C197.350045,11.4279979 197.429211,10.9593359 197.416544,10.44 C197.416544,9.97133099 197.340545,9.53116872 197.188544,9.1195 C197.036544,8.70783127 196.814879,8.34683488 196.523544,8.0365 C196.23221,7.72616511 195.877547,7.47916758 195.459544,7.2955 C195.041542,7.11183241 194.57288,7.02 194.053544,7.02 C193.584875,7.02 193.151046,7.11183241 192.752044,7.2955 C192.353042,7.47916758 192.004713,7.72616511 191.707044,8.0365 C191.409376,8.34683488 191.175045,8.70783127 191.004044,9.1195 C190.833044,9.53116872 190.747544,9.97133099 190.747544,10.44 L190.747544,10.44 Z M190.519544,16.786 C190.88688,17.2800025 191.365041,17.6758318 191.954044,17.9735 C192.543047,18.2711682 193.198541,18.42 193.920544,18.42 C194.553881,18.42 195.092209,18.3281676 195.535544,18.1445 C195.97888,17.9608324 196.33671,17.7106682 196.609044,17.394 C196.881379,17.0773317 197.07771,16.7068355 197.198044,16.2825 C197.318378,15.8581645 197.378544,15.4053357 197.378544,14.924 L197.378544,13.328 L197.340544,13.328 C196.935209,13.936003 196.441214,14.3666654 195.858544,14.62 C195.275875,14.8733346 194.661548,15 194.015544,15 C193.369541,15 192.764714,14.8860011 192.201044,14.658 C191.637375,14.4299989 191.146547,14.116502 190.728544,13.7175 C190.310542,13.318498 189.981212,12.8403361 189.740544,12.283 C189.499877,11.7256639 189.379544,11.1240032 189.379544,10.478 C189.379544,9.83199677 189.493543,9.23033612 189.721544,8.673 C189.949546,8.11566388 190.263042,7.62800209 190.662044,7.21 C191.061046,6.79199791 191.536042,6.4658345 192.087044,6.2315 C192.638047,5.99716549 193.242874,5.88 193.901544,5.88 C194.167546,5.88 194.449376,5.90533308 194.747044,5.956 C195.044713,6.00666692 195.342376,6.0953327 195.640044,6.222 C195.937713,6.3486673 196.23221,6.52283222 196.523544,6.7445 C196.814879,6.96616777 197.08721,7.24799829 197.340544,7.59 L197.378544,7.59 L197.378544,6.108 L198.632544,6.108 L198.632544,14.924 C198.632544,15.4053357 198.572378,15.9183306 198.452044,16.463 C198.33171,17.0076694 198.09738,17.5079977 197.749044,17.964 C197.400709,18.4200023 196.916214,18.7999985 196.295544,19.104 C195.674875,19.4080015 194.864216,19.56 193.863544,19.56 C192.976873,19.56 192.185215,19.4143348 191.488544,19.123 C190.791874,18.8316652 190.158547,18.382003 189.588544,17.774 L190.519544,16.786 Z M203.073363,6.108 C203.098696,6.34866787 203.114529,6.58616549 203.120863,6.8205 C203.127196,7.0548345 203.130363,7.29233213 203.130363,7.533 L203.168363,7.533 C203.307697,7.29233213 203.485028,7.07066768 203.700363,6.868 C203.915697,6.66533232 204.156361,6.49116739 204.422363,6.3455 C204.688364,6.1998326 204.970194,6.08583374 205.267863,6.0035 C205.565531,5.92116625 205.860028,5.88 206.151363,5.88 C207.291368,5.88 208.133693,6.18083032 208.678363,6.7825 C209.223032,7.38416967 209.495363,8.24232776 209.495363,9.357 L209.495363,15 L208.241363,15 L208.241363,10.079 C208.241363,9.09099506 208.070364,8.33416929 207.728363,7.8085 C207.386361,7.2828307 206.753034,7.02 205.828363,7.02 C205.765029,7.02 205.587697,7.04533308 205.296363,7.096 C205.005028,7.14666692 204.697864,7.28599886 204.374863,7.514 C204.051861,7.74200114 203.763697,8.08399772 203.510363,8.54 C203.257028,8.99600228 203.130363,9.62932928 203.130363,10.44 L203.130363,15 L201.876363,15 L201.876363,8.065 C201.876363,7.82433213 201.866863,7.52033517 201.847863,7.153 C201.828862,6.78566483 201.806696,6.43733498 201.781363,6.108 L203.073363,6.108 Z" id="Lucid-Particle-Desig" fill="#FFFFFF" sketch:type="MSShapeGroup"></path>
            </g>
        </g>
    </g>
</svg>